<svg width="590" height="511" viewBox="0 0 590 511" fill="none" xmlns="http://www.w3.org/2000/svg">
<path d="M467.072 167.755C440.59 167.755 419.121 146.286 419.121 119.803C419.121 93.3193 440.59 71.8502 467.072 71.8502C493.559 71.8502 515.027 93.3193 515.027 119.803C515.027 146.286 493.559 167.755 467.072 167.755ZM588.561 133.53C589.066 129.022 589.335 124.444 589.335 119.803C589.335 117.353 589.253 114.923 589.109 112.511L566.43 105.171C565.031 95.6087 562.289 86.4837 558.397 77.9947L573.437 59.4881C569.961 53.3665 565.97 47.5721 561.526 42.169L538.839 49.5709C532.226 42.8157 524.673 36.9914 516.381 32.3094L517.672 8.4762C511.342 5.59412 504.725 3.23531 497.871 1.4574L483.863 20.7878C478.403 19.8693 472.797 19.3834 467.072 19.3834C463.176 19.3834 459.33 19.6136 455.544 20.0461L442.576 0C435.625 1.41365 428.893 3.41673 422.427 5.95482L422.455 29.8232C413.916 34.0666 406.066 39.4879 399.116 45.8781L376.862 37.2909C372.132 42.4582 367.841 48.0299 364.045 53.9548L378.089 73.2347C373.745 81.5242 370.518 90.4945 368.622 99.9464L345.588 106.076C345.082 110.583 344.813 115.162 344.813 119.803C344.813 122.252 344.896 124.682 345.036 127.095L367.719 134.434C369.117 143.997 371.859 153.122 375.752 161.611L360.711 180.118C364.188 186.239 368.178 192.033 372.623 197.436L395.31 190.034C401.923 196.789 409.475 202.614 417.767 207.295L416.476 231.13C422.806 234.011 429.423 236.37 436.277 238.147L450.286 218.817C455.745 219.737 461.352 220.221 467.072 220.221C470.976 220.221 474.819 219.992 478.604 219.559L491.573 239.605C498.524 238.192 505.255 236.189 511.722 233.651L511.693 209.782C520.232 205.539 528.085 200.118 535.032 193.728L557.286 202.315C562.017 197.148 566.308 191.575 570.104 185.651L556.059 166.37C560.404 158.081 563.63 149.111 565.527 139.659L588.561 133.53Z" fill="#A6A6A6" fill-opacity="0.6"/>
<path d="M532.477 174.494C532.071 174.494 531.667 174.358 531.333 174.079C530.57 173.446 530.465 172.316 531.1 171.555C543.151 157.064 549.791 138.684 549.791 119.804C549.791 110.762 548.309 101.884 545.396 93.4167C545.072 92.48 545.568 91.4598 546.503 91.1382C547.442 90.816 548.46 91.3129 548.783 92.2485C551.829 101.093 553.375 110.364 553.375 119.804C553.375 139.52 546.442 158.713 533.857 173.847C533.501 174.274 532.992 174.494 532.477 174.494Z" fill="black"/>
<path d="M525.533 61.3135C525.092 61.3135 524.651 61.152 524.307 60.8262C516.206 53.2009 506.825 47.4214 496.423 43.6472C495.494 43.3096 495.014 42.2805 495.351 41.3503C495.688 40.4197 496.716 39.9391 497.649 40.2771C508.51 44.2185 518.306 50.2541 526.763 58.2159C527.483 58.895 527.519 60.029 526.842 60.7501C526.487 61.1246 526.01 61.3135 525.533 61.3135Z" fill="black"/>
<path d="M448.476 41.3271C447.673 41.3271 446.941 40.7849 446.737 39.9725C446.497 39.0131 447.077 38.0387 448.038 37.7961C454.788 36.0926 461.774 35.2285 468.8 35.2285C469.789 35.2285 470.592 36.0307 470.592 37.0203C470.592 38.0106 469.789 38.8128 468.8 38.8128C462.069 38.8128 455.38 39.6406 448.913 41.2716C448.766 41.3093 448.619 41.3271 448.476 41.3271Z" fill="black"/>
<path d="M119.005 460.865C100.661 460.865 85.7906 445.993 85.7906 427.65C85.7906 409.304 100.661 394.435 119.005 394.435C137.348 394.435 152.22 409.304 152.22 427.65C152.22 445.993 137.348 460.865 119.005 460.865ZM203.152 437.157C203.503 434.035 203.685 430.866 203.685 427.65C203.685 425.955 203.632 424.271 203.531 422.599L187.822 417.517C186.855 410.893 184.955 404.573 182.259 398.69L192.677 385.872C190.267 381.632 187.505 377.62 184.424 373.878L168.712 379.004C164.133 374.326 158.899 370.29 153.158 367.05L154.051 350.539C149.667 348.542 145.082 346.911 140.336 345.678L130.633 359.066C126.851 358.433 122.968 358.095 119.005 358.095C116.304 358.095 113.639 358.253 111.019 358.554L102.035 344.667C97.2232 345.65 92.5586 347.037 88.08 348.794L88.1007 365.326C82.185 368.264 76.7467 372.021 71.9344 376.445L56.5202 370.498C53.2447 374.079 50.2701 377.936 47.6427 382.04L57.37 395.393C54.3599 401.135 52.1259 407.348 50.8122 413.897L34.8573 418.14C34.5083 421.263 34.3223 424.435 34.3223 427.65C34.3223 429.345 34.3785 431.031 34.477 432.701L50.1872 437.784C51.1544 444.408 53.0536 450.728 55.7504 456.606L45.333 469.425C47.742 473.665 50.5052 477.68 53.5851 481.423L69.2978 476.293C73.8774 480.974 79.1104 485.007 84.8515 488.251L83.9579 504.758C88.3425 506.755 92.9275 508.389 97.6746 509.618L107.377 496.231C111.158 496.868 115.042 497.205 119.005 497.205C121.706 497.205 124.37 497.044 126.991 496.747L135.974 510.629C140.786 509.651 145.451 508.264 149.929 506.507L149.909 489.972C155.824 487.032 161.262 483.28 166.075 478.852L181.489 484.799C184.765 481.222 187.738 477.361 190.366 473.261L180.638 459.904C183.65 454.162 185.884 447.95 187.197 441.404L203.152 437.157Z" fill="#A6A6A6" fill-opacity="0.6"/>
<path d="M164.304 466.08C163.9 466.08 163.494 465.944 163.159 465.668C162.398 465.033 162.294 463.904 162.927 463.14C171.192 453.205 175.745 440.597 175.745 427.65C175.745 421.449 174.73 415.359 172.73 409.551C172.408 408.615 172.906 407.594 173.842 407.275C174.777 406.953 175.797 407.447 176.12 408.383C178.25 414.57 179.329 421.051 179.329 427.65C179.329 441.433 174.483 454.854 165.683 465.435C165.329 465.861 164.819 466.08 164.304 466.08Z" fill="black"/>
<path d="M159.496 387.688C159.055 387.688 158.614 387.527 158.267 387.201C152.713 381.971 146.279 378.006 139.145 375.418C138.215 375.077 137.735 374.053 138.072 373.12C138.408 372.188 139.438 371.709 140.368 372.049C147.964 374.802 154.812 379.024 160.724 384.587C161.445 385.269 161.48 386.401 160.802 387.122C160.448 387.498 159.973 387.688 159.496 387.688Z" fill="black"/>
<path d="M106.12 373.845C105.319 373.845 104.589 373.304 104.384 372.489C104.142 371.529 104.724 370.554 105.683 370.314C110.402 369.123 115.286 368.518 120.199 368.518C121.189 368.518 121.991 369.321 121.991 370.31C121.991 371.3 121.189 372.103 120.199 372.103C115.582 372.103 110.993 372.669 106.561 373.787C106.413 373.827 106.265 373.845 106.12 373.845Z" fill="black"/>
<path d="M491.551 372.352C479.85 372.352 470.363 362.867 470.363 351.165C470.363 339.464 479.85 329.978 491.551 329.978C503.254 329.978 512.739 339.464 512.739 351.165C512.739 362.867 503.254 372.352 491.551 372.352ZM542.405 350.189C542.405 349.262 542.38 348.342 542.329 347.427L554.102 337.976C553.176 333.26 551.732 328.732 549.825 324.454L534.626 323.305C531.171 317.851 526.694 313.11 521.468 309.345L521.417 294.199C517.184 291.979 512.671 290.22 507.943 289L497.555 300.179C495.762 299.986 493.945 299.884 492.103 299.884C487.525 299.884 483.09 300.499 478.875 301.645L466.964 292.21C462.469 294.164 458.246 296.622 454.364 299.517L456.619 314.532C452.177 318.952 448.561 324.197 446.009 330.017L431.19 333.451C429.939 338.026 429.186 342.809 429 347.735L442.052 355.282C442.717 361.892 444.664 368.121 447.636 373.725L441.101 387.411C443.904 391.244 447.127 394.751 450.705 397.859L464.698 392.378C470.201 395.959 476.445 398.494 483.152 399.699L489.748 413.281C490.533 413.311 491.321 413.33 492.117 413.33C496.067 413.33 499.935 412.963 503.687 412.268L508.137 397.884C514.614 395.706 520.503 392.243 525.5 387.802L540.211 391.107C543.229 387.566 545.86 383.687 548.047 379.535L539.519 367.012C541.386 361.752 542.405 356.089 542.405 350.189Z" fill="#A6A6A6" fill-opacity="0.6"/>
<path d="M0 366.92H155.837V111.493H0V366.92Z" fill="#222222"/>
<path d="M8.16113 357.184H150.714V116.697H8.16113V357.184Z" fill="#F0F0F0"/>
<path d="M50.7998 213.133C56.1652 201.59 65.2458 197.893 80.1584 197.893C97.9144 197.893 107.133 204.325 109.747 213.69C77.9512 214.126 50.7998 213.133 50.7998 213.133Z" fill="#9BD6E8"/>
<path d="M73.958 141.754C66.4415 143.864 66.7706 148.088 64.2656 152.008C61.7616 155.929 56.3166 158.541 55.6631 161.155C55.0107 163.768 57.3403 169.212 54.5746 172.262C51.8095 175.311 50.8722 176.836 51.9618 179.885C53.0503 182.933 55.4458 187.724 55.6631 188.378C55.8812 189.031 58.9301 193.605 62.6332 194.258C66.3352 194.912 73.3045 196.001 76.7885 197.525C80.2735 199.049 91.4771 195.574 97.6969 195.791C103.915 196.009 108.15 191.427 107.714 188.378C107.279 185.329 112.301 179.231 112.288 174.004C112.275 168.391 105.755 164.203 104.012 160.501C102.27 156.799 104.23 150.265 97.6969 146.396C93.568 143.95 90.7268 144.168 87.4609 143.078C84.194 141.989 78.7489 140.41 73.958 141.754Z" fill="#3A384D"/>
<path d="M83.1061 207.108C81.405 209.617 80.1593 209.72 78.3145 207.108C76.8478 205.03 73.959 200.309 73.959 197.913V174.004C73.959 171.609 75.919 169.648 78.3145 169.648H83.1061C85.5015 169.648 87.4619 171.609 87.4619 174.004V197.913C87.4619 200.309 84.6304 204.857 83.1061 207.108Z" fill="#F09959"/>
<path d="M83.1061 169.648H78.3145C75.919 169.648 73.959 171.609 73.959 174.004V195.337C79.3382 197.049 84.2479 193.644 87.4619 189.809V174.004C87.4619 171.609 85.5015 169.648 83.1061 169.648Z" fill="#E38540"/>
<path d="M95.1908 169.89C95.1908 180.789 88.7074 189.625 80.7085 189.625C72.7104 189.625 66.2256 180.789 66.2256 169.89C66.2256 158.991 72.7104 150.156 80.7085 150.156C88.7074 150.156 95.1908 158.991 95.1908 169.89Z" fill="#F09959"/>
<path d="M87.4609 154.185C78.3135 169.648 64.8105 168.123 64.8105 168.123C64.8105 168.123 65.1371 147.652 75.8632 146.562C86.5894 145.473 92.9053 149.778 95.0827 156.882C97.2608 163.986 95.0827 168.668 95.0827 168.668C95.0827 168.668 91.5984 165.946 89.8564 161.59C88.114 157.234 87.4609 154.185 87.4609 154.185Z" fill="#3A384D"/>
<path d="M67.7091 169.587C69.064 172.439 68.6208 175.482 66.7191 176.386C64.8178 177.289 62.1786 175.709 60.824 172.857C59.4691 170.005 59.9123 166.96 61.8133 166.058C63.7154 165.155 66.3545 166.734 67.7091 169.587Z" fill="#F09959"/>
<path d="M93.0562 169.587C91.7017 172.439 92.1445 175.482 94.0466 176.386C95.9476 177.289 98.5867 175.709 99.9416 172.857C101.296 170.005 100.852 166.96 98.9513 166.058C97.05 165.155 94.4108 166.734 93.0562 169.587Z" fill="#F09959"/>
<path d="M86.1541 180.593C86.1541 180.593 83.7159 183.753 80.709 183.753C77.7021 183.753 75.2646 180.593 75.2646 180.593H86.1541Z" fill="#F0F0F0"/>
<path d="M97.9499 244.438H61.3757C59.0368 244.438 57.123 242.525 57.123 240.185C57.123 237.846 59.0368 235.933 61.3757 235.933H97.9499C100.289 235.933 102.203 237.846 102.203 240.185C102.203 242.525 100.289 244.438 97.9499 244.438Z" fill="#222222"/>
<path d="M104.646 257.504H54.6777C52.3399 257.504 50.4258 255.59 50.4258 253.251C50.4258 250.912 52.3399 248.998 54.6777 248.998H104.646C106.985 248.998 108.899 250.912 108.899 253.251C108.899 255.59 106.985 257.504 104.646 257.504Z" fill="#222222"/>
<path d="M140.435 304.497H18.8902C17.5331 304.497 16.4229 303.386 16.4229 302.029C16.4229 300.671 17.5331 299.561 18.8902 299.561H140.435C141.792 299.561 142.902 300.671 142.902 302.029C142.902 303.386 141.792 304.497 140.435 304.497Z" fill="#222222"/>
<path d="M140.435 315.966H18.8902C17.5331 315.966 16.4229 314.854 16.4229 313.499C16.4229 312.14 17.5331 311.03 18.8902 311.03H140.435C141.792 311.03 142.902 312.14 142.902 313.499C142.902 314.854 141.792 315.966 140.435 315.966Z" fill="#222222"/>
<path d="M140.435 327.436H18.8902C17.5331 327.436 16.4229 326.325 16.4229 324.966C16.4229 323.611 17.5331 322.5 18.8902 322.5H140.435C141.792 322.5 142.902 323.611 142.902 324.966C142.902 326.325 141.792 327.436 140.435 327.436Z" fill="#222222"/>
<path d="M35.8898 130.057C35.444 130.057 35.0677 130.433 35.0677 130.879V211.564C35.0677 212.009 35.444 212.385 35.8898 212.385H123.435C123.88 212.385 124.256 212.009 124.256 211.564V130.879C124.256 130.433 123.88 130.057 123.435 130.057H35.8898ZM123.435 215.97H35.8898C33.4598 215.97 31.4834 213.993 31.4834 211.564V130.879C31.4834 128.449 33.4598 126.473 35.8898 126.473H123.435C125.864 126.473 127.841 128.449 127.841 130.879V211.564C127.841 213.993 125.864 215.97 123.435 215.97Z" fill="#222222"/>
<path d="M48.5219 268.6L51.0568 273.735L56.7245 274.559L52.6237 278.556L53.5917 284.2L48.5219 281.536L43.4532 284.2L44.4211 278.556L40.3203 274.559L45.9881 273.735L48.5219 268.6Z" fill="#05ACF0"/>
<path d="M69.2833 268.6L71.8175 273.735L77.4849 274.559L73.3841 278.556L74.3521 284.2L69.2833 281.536L64.2136 284.2L65.1818 278.556L61.0811 274.559L66.7485 273.735L69.2833 268.6Z" fill="#05ACF0"/>
<path d="M90.0424 268.6L92.5773 273.735L98.2447 274.559L94.1439 278.556L95.1118 284.2L90.0424 281.536L84.9733 284.2L85.9416 278.556L81.8408 274.559L87.5075 273.735L90.0424 268.6Z" fill="#05ACF0"/>
<path d="M110.802 268.6L113.337 273.735L119.004 274.559L114.904 278.556L115.872 284.2L110.802 281.536L105.733 284.2L106.701 278.556L102.601 274.559L108.267 273.735L110.802 268.6Z" fill="#05ACF0"/>
<path d="M347.423 366.92H503.259V111.493H347.423V366.92Z" fill="#222222"/>
<path d="M355.581 357.184H498.136V116.697H355.581V357.184Z" fill="#F0F0F0"/>
<path d="M404.995 168.587C404.995 180.028 411.881 198.488 428.13 197.895C444.382 197.302 447.974 179.706 448.605 174.741C449.232 169.775 404.995 168.587 404.995 168.587Z" fill="#7A4E34"/>
<path d="M398.224 213.133C403.587 201.59 412.67 197.893 427.582 197.893C445.336 197.893 454.556 204.325 457.169 213.69C425.373 214.126 398.224 213.133 398.224 213.133Z" fill="#D54A41"/>
<path d="M430.527 207.108C428.824 209.617 427.581 209.72 425.735 207.108C424.269 205.03 421.38 200.309 421.38 197.913V174.004C421.38 171.609 423.34 169.648 425.735 169.648H430.527C432.922 169.648 434.883 171.609 434.883 174.004V197.913C434.883 200.309 432.051 204.857 430.527 207.108Z" fill="#F09959"/>
<path d="M430.527 169.648H425.735C423.34 169.648 421.38 171.609 421.38 174.004V195.337C426.76 197.049 431.671 193.644 434.883 189.809V174.004C434.883 171.609 432.922 169.648 430.527 169.648Z" fill="#E38540"/>
<path d="M442.615 169.89C442.615 180.789 436.131 189.625 428.13 189.625C420.133 189.625 413.648 180.789 413.648 169.89C413.648 158.991 420.133 150.156 428.13 150.156C436.131 150.156 442.615 158.991 442.615 169.89Z" fill="#F09959"/>
<path d="M436.091 154.891C434.371 160.959 430.6 160.889 425.342 162.882C420.083 164.875 417.569 166.88 415.85 170.763C413.652 175.713 416.846 190.147 416.846 190.147C416.846 190.147 403.529 180.183 405.067 164.513C406.608 148.842 415.85 142.772 424.542 142.772C433.238 142.772 436.547 148.072 436.547 148.072C436.547 148.072 441.178 148.091 445.558 153.28C451.448 160.256 449.634 177.194 445.558 183.263C441.482 189.332 438.765 191.234 438.855 190.963C438.945 190.691 442.658 176.753 440.669 168.135C438.675 159.518 436.091 154.891 436.091 154.891Z" fill="#7A4E34"/>
<path d="M433.574 180.593C433.574 180.593 431.137 183.753 428.129 183.753C425.125 183.753 422.685 180.593 422.685 180.593H433.574Z" fill="#F0F0F0"/>
<path d="M445.371 244.438H408.797C406.457 244.438 404.543 242.525 404.543 240.185C404.543 237.846 406.457 235.933 408.797 235.933H445.371C447.708 235.933 449.622 237.846 449.622 240.185C449.622 242.525 447.708 244.438 445.371 244.438Z" fill="#222222"/>
<path d="M452.068 257.504H402.102C399.762 257.504 397.848 255.59 397.848 253.251C397.848 250.912 399.762 248.998 402.102 248.998H452.068C454.409 248.998 456.323 250.912 456.323 253.251C456.323 255.59 454.409 257.504 452.068 257.504Z" fill="#222222"/>
<path d="M487.855 304.497H366.313C364.954 304.497 363.843 303.386 363.843 302.029C363.843 300.671 364.954 299.561 366.313 299.561H487.855C489.214 299.561 490.325 300.671 490.325 302.029C490.325 303.386 489.214 304.497 487.855 304.497Z" fill="#222222"/>
<path d="M487.855 315.966H366.313C364.954 315.966 363.843 314.854 363.843 313.499C363.843 312.14 364.954 311.03 366.313 311.03H487.855C489.214 311.03 490.325 312.14 490.325 313.499C490.325 314.854 489.214 315.966 487.855 315.966Z" fill="#222222"/>
<path d="M487.855 327.436H366.313C364.954 327.436 363.843 326.325 363.843 324.966C363.843 323.611 364.954 322.5 366.313 322.5H487.855C489.214 322.5 490.325 323.611 490.325 324.966C490.325 326.325 489.214 327.436 487.855 327.436Z" fill="#222222"/>
<path d="M383.312 130.057C382.868 130.057 382.491 130.433 382.491 130.879V211.564C382.491 212.009 382.868 212.385 383.312 212.385H470.858C471.303 212.385 471.679 212.009 471.679 211.564V130.879C471.679 130.433 471.303 130.057 470.858 130.057H383.312ZM470.858 215.97H383.312C380.882 215.97 378.906 213.993 378.906 211.564V130.879C378.906 128.449 380.882 126.473 383.312 126.473H470.858C473.289 126.473 475.263 128.449 475.263 130.879V211.564C475.263 213.993 473.289 215.97 470.858 215.97Z" fill="#222222"/>
<path d="M395.942 268.6L398.477 273.735L404.145 274.559L400.044 278.556L401.011 284.2L395.942 281.536L390.874 284.2L391.842 278.556L387.741 274.559L393.409 273.735L395.942 268.6Z" fill="#05ACF0"/>
<path d="M416.705 268.6L419.24 273.735L424.907 274.559L420.806 278.556L421.774 284.2L416.705 281.536L411.633 284.2L412.605 278.556L408.504 274.559L414.171 273.735L416.705 268.6Z" fill="#05ACF0"/>
<path d="M437.463 268.6L439.997 273.735L445.665 274.559L441.564 278.556L442.531 284.2L437.463 281.536L432.395 284.2L433.363 278.556L429.262 274.559L434.929 273.735L437.463 268.6Z" fill="#05ACF0"/>
<path d="M458.225 268.6L460.76 273.735L466.428 274.559L462.326 278.556L463.294 284.2L458.225 281.536L453.154 284.2L454.121 278.556L450.021 274.559L455.688 273.735L458.225 268.6Z" fill="#222222"/>
<path d="M347.422 364.364H155.837V112.441H345.039C344.892 114.876 344.813 117.33 344.813 119.803C344.813 122.252 344.895 124.682 345.035 127.095L347.422 127.867V364.364Z" fill="#D7E8FA"/>
<path d="M347.423 127.867L345.036 127.095C344.896 124.682 344.813 122.252 344.813 119.803C344.813 117.33 344.892 114.876 345.039 112.441H347.423V127.867Z" fill="#2561B3"/>
<path d="M155.837 364.364H119.004L119.5 357.184H150.715V116.698H136.106L136.401 112.441H155.837V364.364Z" fill="#222222"/>
<path d="M150.714 357.184H119.5L121.554 327.435H140.435C141.792 327.435 142.902 326.324 142.902 324.965C142.902 323.611 141.792 322.5 140.435 322.5H121.895L122.346 315.965H140.435C141.792 315.965 142.902 314.853 142.902 313.498C142.902 312.14 141.792 311.03 140.435 311.03H122.686L123.138 304.497H140.435C141.792 304.497 142.902 303.386 142.902 302.029C142.902 300.671 141.792 299.561 140.435 299.561H123.479L136.106 116.697H150.714V357.184Z" fill="#F2F2F2"/>
<path d="M140.435 304.497H123.139L123.48 299.561H140.435C141.792 299.561 142.903 300.671 142.903 302.029C142.903 303.386 141.792 304.497 140.435 304.497Z" fill="#222222"/>
<path d="M140.435 315.966H122.346L122.686 311.03H140.435C141.792 311.03 142.902 312.14 142.902 313.499C142.902 314.854 141.792 315.966 140.435 315.966Z" fill="#222222"/>
<path d="M140.434 327.436H121.554L121.895 322.5H140.434C141.792 322.5 142.902 323.611 142.902 324.966C142.902 326.325 141.792 327.436 140.434 327.436Z" fill="#222222"/>
<path d="M364.941 364.364H347.423V112.441H373.809L373.659 116.698H355.582V357.184H365.192L364.941 364.364Z" fill="#222222"/>
<path d="M365.191 357.184H355.581V116.697H373.659L367.22 299.561H366.313C364.955 299.561 363.843 300.671 363.843 302.029C363.843 303.386 364.955 304.497 366.313 304.497H367.049L366.815 311.03H366.313C364.955 311.03 363.843 312.14 363.843 313.498C363.843 314.853 364.955 315.965 366.313 315.965H366.643L366.413 322.5H366.313C364.955 322.5 363.843 323.611 363.843 324.965C363.843 326.299 364.915 327.396 366.237 327.432L365.191 357.184Z" fill="#F3F3F3"/>
<path d="M367.048 304.497H366.313C364.954 304.497 363.843 303.386 363.843 302.029C363.843 300.671 364.954 299.561 366.313 299.561H367.22L367.048 304.497Z" fill="#222222"/>
<path d="M366.643 315.966H366.313C364.954 315.966 363.843 314.854 363.843 313.499C363.843 312.14 364.954 311.03 366.313 311.03H366.815L366.643 315.966Z" fill="#222222"/>
<path d="M366.237 327.432C364.914 327.396 363.843 326.299 363.843 324.966C363.843 323.611 364.954 322.5 366.313 322.5H366.413L366.237 327.432Z" fill="#222222"/>
<path d="M144.838 413.642H357.689V64.7695H144.838V413.642Z" fill="#222222"/>
<path d="M155.985 400.347H350.689V71.8779H155.985V400.347Z" fill="#F0F0F0"/>
<path d="M235.194 140.87C235.057 140.463 231.649 120.897 231.24 113.288C230.834 105.679 243.471 104.592 243.471 104.592C243.471 104.592 253.794 99.0216 261.268 101.875C268.742 104.728 273.828 109.529 277.222 115.507C280.621 121.486 274.237 140.117 274.237 140.117L235.194 140.87Z" fill="#2E2D3D"/>
<path d="M211.765 203.734C211.718 203.413 212.64 195.712 212.672 195.401C214.393 179.187 234.38 174.626 254.321 174.626C277.754 174.627 293.652 178.915 296.189 195.763C296.264 196.257 297.616 203.976 297.548 204.496C254.117 205.091 211.765 203.734 211.765 203.734Z" fill="#D5E1E8"/>
<path d="M258.347 187.212C256.023 190.64 254.32 190.782 251.801 187.212C249.797 184.374 243.108 177.9 243.108 174.627L245.854 141.998C245.854 138.726 248.531 136.049 251.801 136.049H258.347C261.619 136.049 264.296 138.726 264.296 141.998L265.572 174.627C265.572 177.9 260.429 184.138 258.347 187.212Z" fill="#F09959"/>
<path d="M258.347 136.049H251.801C248.532 136.049 245.854 138.726 245.854 141.998L243.471 170.944C250.819 173.283 260.741 168.529 265.129 163.29L264.297 141.998C264.297 138.726 261.619 136.049 258.347 136.049Z" fill="#E38540"/>
<path d="M232.615 177.006L243.108 196.398C243.108 196.398 248.721 191.778 249.266 192.684C249.81 193.589 248.269 205.021 248.269 205.021C248.269 205.021 260.769 205.191 261.314 204.647C261.859 204.104 258.776 192.23 260.044 192.23C261.314 192.23 265.128 195.673 265.128 195.673L276.842 177.006L274.268 176.379L255.073 186.706L234.548 176.605L232.615 177.006Z" fill="#BDCCD4"/>
<path d="M244.614 185.941L252.407 191.169L249.991 205.046L260.497 204.46L257.874 191.837L264.333 185.941L261.297 183.082H247.647L244.614 185.941Z" fill="#D54A41"/>
<path d="M243.649 167.501L234.015 176.671C234.015 176.671 243.833 194.133 244.374 194.133C244.919 194.133 252.708 184.506 252.708 184.506L257.695 184.418L265.573 192.683L274.725 176.489L265.39 166.596C265.39 166.596 257.418 181.995 255.97 182.356C254.522 182.719 254.511 182.9 253.339 181.995C252.167 181.089 243.649 167.501 243.649 167.501Z" fill="#D5E1E8"/>
<path d="M274.857 136.379C274.857 151.265 265.999 163.333 255.074 163.333C244.148 163.333 235.294 151.265 235.294 136.379C235.294 121.493 244.148 109.426 255.074 109.426C265.999 109.426 274.857 121.493 274.857 136.379Z" fill="#F09959"/>
<path d="M237.319 135.964C239.169 139.859 238.563 144.017 235.964 145.25C233.369 146.484 229.763 144.326 227.913 140.43C226.063 136.536 226.67 132.378 229.264 131.144C231.863 129.911 235.47 132.069 237.319 135.964Z" fill="#F09959"/>
<path d="M271.939 135.964C270.09 139.859 270.696 144.017 273.291 145.25C275.886 146.484 279.493 144.326 281.342 140.43C283.192 136.536 282.589 132.378 279.99 131.144C277.396 129.911 273.789 132.069 271.939 135.964Z" fill="#F09959"/>
<path d="M263.849 147.438C263.849 147.438 259.92 153.802 255.074 153.802C250.228 153.802 246.299 147.438 246.299 147.438H263.849Z" fill="#F0F0F0"/>
<path d="M243.471 118.045C251.622 112.338 255.289 113.288 261.404 122.664C267.519 132.039 274.857 132.205 274.857 132.205L275.807 122.483C275.807 122.483 266.699 104.865 254.471 107.175C242.248 109.484 235.294 120.49 235.294 120.49C235.294 120.49 234.698 141.119 236.406 141.823C238.112 142.526 238.305 135.165 239.527 133.67C240.754 132.175 238.305 125.11 239.936 121.849C241.567 118.588 243.471 118.045 243.471 118.045Z" fill="#2E2D3D"/>
<path d="M269.691 128.642C272.538 131.759 271.459 144.131 272.954 143.995C274.448 143.86 274.993 132.174 274.585 130.952C274.176 129.729 269.691 128.642 269.691 128.642Z" fill="#2E2D3D"/>
<path d="M299.074 246.352H208.213C205.019 246.352 202.406 243.738 202.406 240.544C202.406 237.349 205.019 234.734 208.213 234.734H299.074C302.272 234.734 304.886 237.349 304.886 240.544C304.886 243.738 302.272 246.352 299.074 246.352Z" fill="#222222"/>
<path d="M287.769 264.199H219.522C216.324 264.199 213.712 261.585 213.712 258.39C213.712 255.196 216.324 252.582 219.522 252.582H287.769C290.962 252.582 293.576 255.196 293.576 258.39C293.576 261.585 290.962 264.199 287.769 264.199Z" fill="#222222"/>
<path d="M336.651 328.383H170.638C168.785 328.383 167.268 326.866 167.268 325.013C167.268 323.16 168.785 321.644 170.638 321.644H336.651C338.504 321.644 340.02 323.16 340.02 325.013C340.02 326.866 338.504 328.383 336.651 328.383Z" fill="#222222"/>
<path d="M336.651 344.046H170.638C168.785 344.046 167.268 342.53 167.268 340.676C167.268 338.823 168.785 337.308 170.638 337.308H336.651C338.504 337.308 340.02 338.823 340.02 340.676C340.02 342.53 338.504 344.046 336.651 344.046Z" fill="#222222"/>
<path d="M336.651 359.715H170.638C168.785 359.715 167.268 358.195 167.268 356.342C167.268 354.489 168.785 352.973 170.638 352.973H336.651C338.504 352.973 340.02 354.489 340.02 356.342C340.02 358.195 338.504 359.715 336.651 359.715Z" fill="#222222"/>
<path d="M193.858 89.4698C192.878 89.4698 192.081 90.2669 192.081 91.247V201.451C192.081 202.431 192.878 203.228 193.858 203.228H313.431C314.413 203.228 315.209 202.431 315.209 201.451V91.247C315.209 90.2669 314.413 89.4698 313.431 89.4698H193.858ZM313.431 206.812H193.858C190.902 206.812 188.496 204.407 188.496 201.451V91.247C188.496 88.2905 190.902 85.8848 193.858 85.8848H313.431C316.388 85.8848 318.793 88.2905 318.793 91.247V201.451C318.793 204.407 316.388 206.812 313.431 206.812Z" fill="#222222"/>
<path d="M196.71 279.353L200.172 286.367L207.912 287.492L202.313 292.951L203.636 300.661L196.71 297.021L189.786 300.661L191.109 292.951L185.508 287.492L193.248 286.367L196.71 279.353Z" fill="#FF6600"/>
<path d="M225.063 279.353L228.526 286.367L236.268 287.492L230.665 292.951L231.988 300.661L225.063 297.021L218.141 300.661L219.464 292.951L213.861 287.492L221.603 286.367L225.063 279.353Z" fill="#FF6600"/>
<path d="M253.418 279.353L256.88 286.367L264.623 287.492L259.02 292.951L260.343 300.661L253.418 297.021L246.495 300.661L247.818 292.951L242.216 287.492L249.958 286.367L253.418 279.353Z" fill="#FF6600"/>
<path d="M281.774 279.353L285.234 286.367L292.977 287.492L287.374 292.951L288.697 300.661L281.774 297.021L274.85 300.661L276.172 292.951L270.569 287.492L278.312 286.367L281.774 279.353Z" fill="#FF6600"/>
<path d="M310.581 279.353L314.04 286.367L321.783 287.492L316.18 292.951L317.503 300.661L310.581 297.021L303.655 300.661L304.979 292.951L299.376 287.492L307.118 286.367L310.581 279.353Z" fill="#222222"/>
<path d="M328.282 457.63H339.603C341.994 457.63 343.932 455.695 343.932 453.304V443.98C343.932 441.59 341.994 439.653 339.603 439.653H328.282C325.892 439.653 323.954 441.59 323.954 443.98V453.304C323.954 455.695 325.892 457.63 328.282 457.63Z" fill="#A6A6A6" fill-opacity="0.6"/>
<path d="M291.96 457.63H303.281C305.671 457.63 307.609 455.695 307.609 453.304V443.98C307.609 441.59 305.671 439.653 303.281 439.653H291.96C289.57 439.653 287.632 441.59 287.632 443.98V453.304C287.632 455.695 289.57 457.63 291.96 457.63Z" fill="#A6A6A6" fill-opacity="0.6"/>
<path d="M255.638 457.63H266.958C269.349 457.63 271.286 455.695 271.286 453.304V443.98C271.286 441.59 269.349 439.653 266.958 439.653H255.638C253.248 439.653 251.31 441.59 251.31 443.98V453.304C251.31 455.695 253.248 457.63 255.638 457.63Z" fill="#A6A6A6" fill-opacity="0.6"/>
</svg>
