<svg width="100" height="35" viewBox="0 0 1113 171" fill="none" xmlns="http://www.w3.org/2000/svg">
<path fill-rule="evenodd" clip-rule="evenodd" d="M259.092 3.75952H219.008C214.522 3.75952 210.332 3.88916 206.422 4.15751V35.7184C209.786 34.9013 213.929 34.5381 219.008 34.5381H259.092V3.75952Z" fill="#05ACF0"/>
<path fill-rule="evenodd" clip-rule="evenodd" d="M331.625 70.5657H206.422V99.4356H331.625V70.5657Z" fill="#FECD00"/>
<path fill-rule="evenodd" clip-rule="evenodd" d="M332.579 135.702H219.008C213.922 135.702 209.78 135.4 206.422 134.674V166.082C210.332 166.351 214.522 166.48 219.008 166.48H332.579V135.702Z" fill="#A9D035"/>
<path fill-rule="evenodd" clip-rule="evenodd" d="M64.51 135.463C43.2751 135.463 36.8333 130.691 36.8333 109.218V61.2605C36.8333 41.4573 42.7981 35.0155 64.51 35.0155H105.31V3.75952H62.8398C14.8825 3.75952 0.805664 18.5526 0.805664 59.5903V110.649C0.805664 151.688 14.8825 166.48 62.8398 166.48H127.021C175.456 166.48 189.533 151.688 189.533 110.649V70.0887H153.267V107.786C153.267 130.93 146.109 135.463 125.829 135.463H64.51Z" fill="white"/>
<path fill-rule="evenodd" clip-rule="evenodd" d="M351.427 57.6817C351.427 85.5973 360.971 98.9583 397.476 98.9583H475.018C487.664 98.9583 493.151 102.776 493.151 113.035V121.863C493.151 132.839 487.664 135.702 474.78 135.702H351.188V166.48H476.688C512.955 166.48 526.316 154.551 526.316 124.249V111.365C526.316 82.0184 512.955 70.0887 476.688 70.0887H400.577C388.886 70.0887 384.592 66.271 384.592 56.0115V50.7625C384.592 37.8784 389.841 34.5381 400.816 34.5381H448.057V3.75952H397.476C364.788 3.75952 351.427 16.1666 351.427 49.5697V57.6817Z" fill="white"/>
<path fill-rule="evenodd" clip-rule="evenodd" d="M518.442 35.0155H586.68V166.48H623.185V87.5558H623.172V3.75952H518.442V35.0155Z" fill="#FF6600"/>
<path fill-rule="evenodd" clip-rule="evenodd" d="M646.053 3.75952V166.48H682.319V3.75952H646.053Z" fill="white"/>
<path fill-rule="evenodd" clip-rule="evenodd" d="M773.461 135.463C750.556 135.463 745.784 130.453 745.784 109.218V61.2605C745.784 40.9803 750.556 35.0155 773.461 35.0155H832.155C853.39 35.0155 859.594 40.9803 859.594 61.2605V109.218C859.594 130.453 853.39 135.463 832.155 135.463H773.461ZM709.757 59.5903V110.649C709.757 151.688 723.834 166.48 771.791 166.48H833.587C881.782 166.48 895.86 151.688 895.86 110.649V59.5903C895.86 18.5526 881.782 3.75952 833.587 3.75952H771.791C723.834 3.75952 709.757 18.5526 709.757 59.5903Z" fill="white"/>
<path fill-rule="evenodd" clip-rule="evenodd" d="M922.582 15.2122V166.48H956.224V50.7625L1074.8 162.424C1080.53 167.912 1086.97 170.059 1094.61 170.059C1105.34 170.059 1112.74 165.764 1112.74 155.028V3.7595H1078.38V121.386L958.848 6.14551C955.269 2.56668 950.02 0.180664 941.908 0.180664C930.456 0.180664 922.582 4.95269 922.582 15.2122Z" fill="white"/>
</svg>
