<svg width="165" height="40" viewBox="0 0 165 40" fill="none" xmlns="http://www.w3.org/2000/svg">
<g clip-path="url(#clip0)">
<path fill-rule="evenodd" clip-rule="evenodd" d="M127.985 17.4342C127.489 20.6883 125.004 20.6883 122.6 20.6883H121.233L122.192 14.6128C122.25 14.2458 122.566 13.9752 122.938 13.9752H123.565C125.201 13.9752 126.747 13.9752 127.544 14.9074C128.021 15.4652 128.165 16.2918 127.985 17.4342ZM126.938 8.94482H117.873C117.253 8.94482 116.726 9.39584 116.629 10.0082L112.964 33.2527C112.891 33.711 113.245 34.1258 113.71 34.1258H118.361C118.795 34.1258 119.164 33.81 119.232 33.3814L120.271 26.7918C120.368 26.1795 120.896 25.7285 121.515 25.7285H124.384C130.355 25.7285 133.801 22.8386 134.702 17.1115C135.107 14.6067 134.718 12.6385 133.545 11.2606C132.256 9.74581 129.971 8.94482 126.938 8.94482Z" fill="#2790C3"/>
<path fill-rule="evenodd" clip-rule="evenodd" d="M63.3288 17.4342C62.8334 20.6883 60.3481 20.6883 57.9448 20.6883H56.5771L57.5361 14.6128C57.5944 14.2458 57.911 13.9752 58.2825 13.9752H58.9095C60.5457 13.9752 62.0915 13.9752 62.888 14.9074C63.3651 15.4652 63.5093 16.2918 63.3288 17.4342ZM62.283 8.94482H53.2175C52.5978 8.94482 52.0702 9.39584 51.9736 10.0082L48.3077 33.2527C48.2356 33.711 48.59 34.1258 49.0541 34.1258H53.3825C54.0022 34.1258 54.5302 33.6748 54.6268 33.0628L55.616 26.7918C55.7121 26.1795 56.2401 25.7285 56.8598 25.7285H59.7285C65.6992 25.7285 69.1455 22.8386 70.0463 17.1115C70.4517 14.6067 70.0626 12.6385 68.8897 11.2606C67.6002 9.74581 65.3154 8.94482 62.283 8.94482Z" fill="#27346A"/>
<path fill-rule="evenodd" clip-rule="evenodd" d="M83.3286 25.7792C82.9094 28.2595 80.9403 29.9247 78.429 29.9247C77.17 29.9247 76.1621 29.5197 75.5143 28.7529C74.8722 27.9927 74.6306 26.9098 74.8339 25.7038C75.225 23.2458 77.2255 21.5269 79.6985 21.5269C80.9313 21.5269 81.932 21.936 82.5928 22.7097C83.2577 23.4891 83.5189 24.5793 83.3286 25.7792ZM89.3779 17.3305H85.0373C84.6653 17.3305 84.3488 17.6006 84.2909 17.9685L84.0998 19.1822L83.7963 18.7422C82.8564 17.3778 80.7614 16.9219 78.6693 16.9219C73.8736 16.9219 69.777 20.5561 68.9797 25.6533C68.5645 28.196 69.1537 30.6258 70.5955 32.3219C71.92 33.8803 73.8105 34.5289 76.0627 34.5289C79.9283 34.5289 82.0721 32.0457 82.0721 32.0457L81.8782 33.252C81.8057 33.7108 82.1601 34.126 82.6246 34.126H86.5338C87.1534 34.126 87.6811 33.6754 87.7776 33.063L90.1243 18.2036C90.1969 17.7449 89.8424 17.3305 89.3779 17.3305Z" fill="#27346A"/>
<path fill-rule="evenodd" clip-rule="evenodd" d="M147.984 25.7792C147.565 28.2595 145.596 29.9247 143.085 29.9247C141.826 29.9247 140.818 29.5197 140.17 28.7529C139.528 27.9927 139.286 26.9098 139.49 25.7038C139.881 23.2458 141.881 21.5269 144.354 21.5269C145.587 21.5269 146.588 21.936 147.248 22.7097C147.913 23.4891 148.174 24.5793 147.984 25.7792ZM154.034 17.3305H149.693C149.321 17.3305 149.004 17.6006 148.946 17.9685L148.755 19.1822L148.452 18.7422C147.512 17.3778 145.417 16.9219 143.325 16.9219C138.53 16.9219 134.433 20.5561 133.635 25.6533C133.221 28.196 133.81 30.6258 135.251 32.3219C136.576 33.8803 138.466 34.5289 140.718 34.5289C144.584 34.5289 146.728 32.0457 146.728 32.0457L146.534 33.252C146.461 33.7108 146.816 34.126 147.281 34.126H151.189C151.809 34.126 152.337 33.6754 152.434 33.063L154.78 18.2036C154.852 17.7449 154.498 17.3305 154.034 17.3305Z" fill="#2790C3"/>
<mask id="mask0" mask-type="alpha" maskUnits="userSpaceOnUse" x="0" y="0" width="165" height="40">
<path d="M0 40H164.839V0H0V40Z" fill="white"/>
</mask>
<g mask="url(#mask0)">
<path fill-rule="evenodd" clip-rule="evenodd" d="M112.497 17.3306H108.134C107.716 17.3306 107.326 17.5375 107.092 17.8826L101.074 26.7468L98.5227 18.2289C98.3634 17.696 97.8728 17.3306 97.3163 17.3306H93.0274C92.5096 17.3306 92.1449 17.8398 92.312 18.33L97.1162 32.4316L92.5976 38.8077C92.2427 39.308 92.6008 40.0002 93.214 40.0002H97.573C97.9861 40.0002 98.3727 39.7977 98.6082 39.4579L113.118 18.517C113.465 18.0158 113.107 17.3306 112.497 17.3306Z" fill="#27346A"/>
<path fill-rule="evenodd" clip-rule="evenodd" d="M159.15 9.58325L155.429 33.2527C155.357 33.7114 155.712 34.1258 156.176 34.1258H159.918C160.537 34.1258 161.065 33.6748 161.162 33.0628L164.83 9.81833C164.903 9.35958 164.548 8.94482 164.084 8.94482H159.896C159.524 8.94482 159.208 9.21576 159.15 9.58325Z" fill="#2790C3"/>
<path fill-rule="evenodd" clip-rule="evenodd" d="M17.1491 38.3519L18.3677 30.6248L18.4464 30.1966C18.505 29.8242 18.6957 29.4836 18.9829 29.2383C19.2702 28.993 19.6364 28.8578 20.0141 28.8578H20.9817C22.5947 28.8578 24.0765 28.6854 25.3863 28.3457C26.7838 27.9835 28.0268 27.4192 29.0804 26.6699C30.1976 25.8755 31.1358 24.8484 31.8696 23.618C32.6437 22.3199 33.2121 20.7571 33.5592 18.9734C33.866 17.3983 33.9234 15.9882 33.7307 14.7819C33.5266 13.5075 33.0356 12.42 32.2717 11.549C31.8085 11.0214 31.2157 10.5643 30.51 10.1902L30.4933 10.1813L30.4929 10.1609C30.7394 8.58868 30.7301 7.2772 30.4648 6.14824C30.1984 5.01684 29.6589 3.9987 28.8144 3.03637C27.0645 1.04246 23.8817 0.03125 19.3549 0.03125H6.92252C6.50695 0.03125 6.10361 0.179958 5.78745 0.450077C5.47129 0.720196 5.26188 1.09543 5.19669 1.50611L0.0200237 34.3331C-0.0272369 34.6325 0.0587285 34.9369 0.255919 35.1667C0.45311 35.3977 0.739933 35.5301 1.04305 35.5301H8.7559L8.74898 35.5667L8.21933 38.9255C8.17859 39.1867 8.25356 39.4515 8.42508 39.6519C8.5966 39.8528 8.84635 39.9685 9.11036 39.9685H15.5794C15.9424 39.9685 16.294 39.8385 16.5698 39.6026C16.8456 39.3667 17.029 39.0396 17.0856 38.6815L17.1491 38.3519Z" fill="#27346A"/>
<path fill-rule="evenodd" clip-rule="evenodd" d="M12.7171 10.2038C12.799 9.68354 13.1326 9.25778 13.582 9.04226C13.7865 8.94448 14.0147 8.88988 14.2538 8.88988H23.9989C25.1535 8.88988 26.2299 8.96566 27.2143 9.12415C27.4954 9.16937 27.7688 9.22152 28.0348 9.2806C28.3008 9.33968 28.5587 9.40527 28.8085 9.47861C28.9336 9.51487 29.0562 9.55316 29.1772 9.5935C29.6604 9.75402 30.1102 9.94306 30.5241 10.1623C31.0122 7.0508 30.5209 4.93344 28.8378 3.01572C26.9849 0.90447 23.6375 0 19.3547 0H6.92234C6.0472 0 5.30203 0.636796 5.16555 1.50134L-0.0111197 34.3283C-0.113382 34.9761 0.387336 35.5616 1.04287 35.5616H8.71783L12.7171 10.2038Z" fill="#27346A"/>
</g>
<path fill-rule="evenodd" clip-rule="evenodd" d="M30.5243 10.1621C30.4872 10.3996 30.446 10.6412 30.3972 10.8902C28.7581 19.3079 23.1488 22.218 15.9847 22.218H12.3367C11.4615 22.218 10.7225 22.8553 10.586 23.7198L8.18833 38.921C8.09911 39.4873 8.53708 39.9999 9.11032 39.9999H15.5797C16.3453 39.9999 16.9971 39.4429 17.1165 38.6863L17.1801 38.3575L18.3987 30.6296L18.4773 30.2026C18.5967 29.4461 19.2485 28.8891 20.0141 28.8891H20.9817C27.249 28.8891 32.1564 26.3428 33.5905 18.9791C34.1894 15.9022 33.8798 13.3339 32.2953 11.5282C31.8162 10.9822 31.2197 10.5304 30.5243 10.1621Z" fill="#2790C3"/>
<path fill-rule="evenodd" clip-rule="evenodd" d="M28.8086 9.47837C28.5588 9.40503 28.3009 9.33944 28.0349 9.28036C27.7688 9.22129 27.4955 9.16914 27.2143 9.12391C26.23 8.96543 25.1536 8.88965 23.999 8.88965H14.2539C14.0148 8.88965 13.7866 8.94424 13.5821 9.04202C13.1327 9.25755 12.799 9.6833 12.7171 10.2036L10.6458 23.3363L10.5859 23.7197C10.7224 22.8552 11.4615 22.218 12.3366 22.218H15.9846C23.1487 22.218 28.7581 19.3078 30.3971 10.8901C30.446 10.6411 30.4871 10.3995 30.5242 10.162C30.1103 9.94283 29.6605 9.75378 29.1773 9.59326C29.0563 9.55293 28.9336 9.51463 28.8086 9.47837Z" fill="#1F264F"/>
</g>
<defs>
<clipPath id="clip0">
<rect width="164.839" height="40" fill="white"/>
</clipPath>
</defs>
</svg>
