<svg width="40" height="40" viewBox="0 0 40 40" fill="none" xmlns="http://www.w3.org/2000/svg">
<path d="M20 40C31.0457 40 40 31.0457 40 20C40 8.9543 31.0457 0 20 0C8.9543 0 0 8.9543 0 20C0 31.0457 8.9543 40 20 40Z" fill="url(#paint0_radial)"/>
<path d="M5.31111 19.9944C5.31111 10.8333 11.0944 3.02216 19.2111 0.0166016C8.53333 0.433268 0 9.2166 0 19.9999C0 30.7944 8.55 39.5888 19.2444 39.9833C11.1167 36.9833 5.31111 29.1666 5.31111 19.9944Z" fill="url(#paint1_radial)"/>
<path d="M5.31111 19.9944C5.31111 10.8333 11.0944 3.02216 19.2111 0.0166016C8.53333 0.433268 0 9.2166 0 19.9999C0 30.7944 8.55 39.5888 19.2444 39.9833C11.1167 36.9833 5.31111 29.1666 5.31111 19.9944Z" fill="url(#paint2_radial)"/>
<path d="M19.661 18.0947C20.9888 14.8225 18.5055 13.9336 16.8888 13.9336H11.5332C11.9777 14.2391 11.9055 14.6447 11.8166 14.8947L8.69436 24.8669C8.57214 25.2614 8.10547 25.678 7.85547 25.7391H12.1888C11.9499 25.6947 11.611 25.3558 11.7332 24.8947L12.8666 21.2891C12.8721 21.2891 18.0832 21.9947 19.661 18.0947V18.0947ZM15.4499 14.8503C16.0166 14.8503 17.5888 14.928 16.5721 17.9003C15.511 21.0225 13.1555 20.378 13.1555 20.378L14.8888 14.8503H15.4499Z" fill="white"/>
<path d="M23.1279 25.7448H26.0445C25.1112 25.4448 23.7334 24.5615 23.1834 23.9337C23.6279 23.4504 24.1779 22.8392 24.2779 21.6004H22.7668C22.7668 21.6004 23.0557 21.767 23.0557 22.1226C23.0557 22.4504 22.9223 22.9059 22.6668 23.2226C22.2223 22.567 21.7501 21.817 21.5834 20.717C22.1779 20.4226 23.0112 20.1004 23.6723 19.5226C24.3001 18.9726 24.4445 18.4504 24.4557 18.1115V18.067C24.4557 17.7115 24.3168 17.3781 24.0612 17.1281C23.6223 16.6948 22.9334 16.517 22.2057 16.6504C21.6223 16.7615 21.1279 17.0726 20.8779 17.3004C20.0001 18.1281 19.889 19.4892 19.889 20.1059C19.889 20.2559 19.8945 20.367 19.9001 20.4337C19.8501 20.4559 19.7612 20.4892 19.7612 20.4892C19.1168 20.7281 17.4001 21.1837 16.789 22.5948C16.7112 22.7726 16.6001 23.1615 16.6001 23.6115C16.6001 24.0004 16.6834 24.4337 16.9334 24.8281C17.3668 25.5059 18.1001 25.9337 19.2779 25.9115C20.5557 25.8892 21.8168 25.017 22.039 24.8559C22.2557 25.0615 22.8279 25.6004 23.1279 25.7448V25.7448ZM23.1279 17.8559C22.9779 18.8059 21.7445 19.767 21.4445 19.8948C21.389 19.3615 21.4168 18.517 21.8612 17.8281C22.1557 17.3726 22.5501 17.1726 22.8668 17.2837C23.1223 17.3726 23.1501 17.6059 23.1279 17.8559ZM21.4168 24.2115C21.2445 24.317 20.5668 24.6615 19.9334 24.7226C19.3445 24.7781 18.3668 24.5504 18.3723 23.3726C18.3723 22.367 19.4668 21.6281 20.0612 21.3726C20.3001 22.3448 20.839 23.4448 21.4168 24.2115V24.2115Z" fill="white"/>
<path d="M31.9889 14.8613C33.7223 14.4446 35.15 15.8002 35.2778 15.8946L35.7723 14.3224C35.0889 14.1169 30.1167 12.4335 26.6 16.4446C24.4389 18.9113 23.9112 23.9669 26.65 25.3224C29.5834 26.7724 32.8223 25.1002 33.0612 24.9835L34.4 20.7169C34.5445 20.2002 34.8723 19.8669 35.45 19.6502H30.7945C31.4723 19.9335 31.4223 20.4446 31.3723 20.6557L30.0334 24.9224C29.8556 24.9557 26.1112 25.8891 28.2056 19.3391C28.6667 17.9335 29.9278 15.3557 31.9889 14.8613Z" fill="white"/>
<defs>
<radialGradient id="paint0_radial" cx="0" cy="0" r="1" gradientUnits="userSpaceOnUse" gradientTransform="translate(8.48315 7.78389) scale(37.3507)">
<stop stop-color="#00A1DF"/>
<stop offset="0.13" stop-color="#0092D7"/>
<stop offset="0.37" stop-color="#006CC1"/>
<stop offset="0.62" stop-color="#003DA6"/>
<stop offset="0.73" stop-color="#043799"/>
<stop offset="0.93" stop-color="#102777"/>
<stop offset="1" stop-color="#152169"/>
</radialGradient>
<radialGradient id="paint1_radial" cx="0" cy="0" r="1" gradientUnits="userSpaceOnUse" gradientTransform="translate(5.76404 3.08384) scale(61.93)">
<stop offset="0.02" stop-color="white"/>
<stop offset="0.03" stop-color="#FBFEFF"/>
<stop offset="0.09" stop-color="#BAE7F9"/>
<stop offset="0.14" stop-color="#87D5F4"/>
<stop offset="0.19" stop-color="#63C9F1"/>
<stop offset="0.23" stop-color="#4CC1EF"/>
<stop offset="0.26" stop-color="#44BEEE"/>
<stop offset="0.28" stop-color="#37B8EB"/>
<stop offset="0.35" stop-color="#19ACE5"/>
<stop offset="0.41" stop-color="#07A4E0"/>
<stop offset="0.45" stop-color="#00A1DF"/>
<stop offset="0.79" stop-color="#0045AB"/>
<stop offset="0.82" stop-color="#003DA6"/>
<stop offset="0.96" stop-color="#0059B6"/>
</radialGradient>
<radialGradient id="paint2_radial" cx="0" cy="0" r="1" gradientUnits="userSpaceOnUse" gradientTransform="translate(15.5588 16.0976) scale(25.1628)">
<stop offset="0.32" stop-color="#44BEEE" stop-opacity="0"/>
<stop offset="0.48" stop-color="#2B99D9" stop-opacity="0.27"/>
<stop offset="0.67" stop-color="#1476C6" stop-opacity="0.58"/>
<stop offset="0.82" stop-color="#0561BA" stop-opacity="0.84"/>
<stop offset="0.92" stop-color="#0059B6"/>
</radialGradient>
</defs>
</svg>
