<svg width="170" height="40" viewBox="0 0 152 40" fill="none" xmlns="http://www.w3.org/2000/svg">
<path d="M88.4653 11.1628L97.2095 7.90698L88.4653 4.55814V0L103.442 6.04651V9.76744L88.4653 15.814V11.1628Z" fill="#A100FF"/>
<path d="M5.76744 39.9997C2.60465 39.9997 0 38.4183 0 34.8834V34.6974C0 30.4183 3.72093 28.9299 8.27907 28.9299H10.4186V28.0927C10.4186 26.3253 9.67442 25.302 7.81395 25.302C6.13953 25.302 5.30233 26.2323 5.2093 27.5346H0.55814C0.930233 23.6276 4 21.7671 8.09302 21.7671C12.2791 21.7671 15.3488 23.5346 15.3488 27.9067V39.6276H10.6047V37.5811C9.67442 38.8834 8.09302 39.9997 5.76744 39.9997ZM10.4186 33.8602V32.1857H8.46512C6.04651 32.1857 4.83721 32.8369 4.83721 34.4183V34.6044C4.83721 35.8137 5.5814 36.6509 7.25581 36.6509C8.93023 36.5578 10.4186 35.6276 10.4186 33.8602ZM26.4186 39.9997C21.5814 39.9997 18.0465 37.023 18.0465 31.0695V30.7904C18.0465 24.8369 21.7674 21.6741 26.4186 21.6741C30.4186 21.6741 33.6744 23.7206 34.0465 28.2788H29.3954C29.1163 26.6044 28.186 25.4881 26.5116 25.4881C24.4651 25.4881 22.9767 27.1625 22.9767 30.6044V31.1625C22.9767 34.6974 24.2791 36.2788 26.5116 36.2788C28.186 36.2788 29.3953 35.0695 29.6744 33.116H34.1395C33.8605 37.209 31.1628 39.9997 26.4186 39.9997ZM44.6512 39.9997C39.814 39.9997 36.2791 37.023 36.2791 31.0695V30.7904C36.2791 24.8369 40 21.6741 44.6512 21.6741C48.6512 21.6741 51.907 23.7206 52.2791 28.2788H47.6279C47.3488 26.6044 46.4186 25.4881 44.7442 25.4881C42.6977 25.4881 41.2093 27.1625 41.2093 30.6044V31.1625C41.2093 34.6974 42.5116 36.2788 44.7442 36.2788C46.4186 36.2788 47.6279 35.0695 47.907 33.116H52.3721C52.093 37.209 49.3954 39.9997 44.6512 39.9997ZM62.9767 39.9997C57.9535 39.9997 54.5116 37.023 54.5116 31.1625V30.7904C54.5116 24.9299 58.1395 21.6741 62.8837 21.6741C67.2558 21.6741 70.8837 24.0927 70.8837 29.9532V32.0927H59.4419C59.6279 35.2555 61.0233 36.4648 63.0698 36.4648C64.9302 36.4648 65.9535 35.4416 66.3256 34.2323H70.8837C70.3256 37.4881 67.5349 39.9997 62.9767 39.9997ZM59.5349 28.8369H66.0465C65.9535 26.2323 64.7442 25.116 62.7907 25.116C61.3023 25.209 59.907 26.0462 59.5349 28.8369ZM73.8605 22.1392H78.7907V24.7439C79.6279 23.0695 81.3954 21.7671 84.093 21.7671C87.2558 21.7671 89.3953 23.7206 89.3953 27.9067V39.6276H84.4651V28.6509C84.4651 26.6044 83.6279 25.6741 81.8605 25.6741C80.186 25.6741 78.7907 26.6974 78.7907 28.9299V39.6276H73.8605V22.1392V22.1392ZM98.4186 16.8369V22.1392H101.767V25.7671H98.4186V34.0462C98.4186 35.3485 98.9767 35.9997 100.186 35.9997C100.93 35.9997 101.395 35.9067 101.86 35.7206V39.5346C101.302 39.7206 100.279 39.9067 99.0698 39.9067C95.2558 39.9067 93.4884 38.1392 93.4884 34.6044V25.7671H91.4419V22.1392H93.4884V18.8834L98.4186 16.8369ZM120.186 39.6276H115.349V37.023C114.512 38.6974 112.837 39.9997 110.233 39.9997C107.07 39.9997 104.744 38.0462 104.744 33.9532V22.1392H109.674V33.302C109.674 35.3485 110.512 36.2788 112.186 36.2788C113.86 36.2788 115.256 35.1625 115.256 33.023V22.1392H120.186V39.6276ZM123.814 22.1392H128.744V25.3951C129.767 23.0695 131.442 21.9532 134.047 21.9532V26.7904C130.698 26.7904 128.744 27.8137 128.744 30.6974V39.7206H123.814V22.1392ZM144 39.9997C138.977 39.9997 135.535 37.023 135.535 31.1625V30.7904C135.535 24.9299 139.163 21.6741 143.907 21.6741C148.279 21.6741 151.907 24.0927 151.907 29.9532V32.0927H140.558C140.744 35.2555 142.14 36.4648 144.186 36.4648C146.047 36.4648 147.07 35.4416 147.442 34.2323H152C151.256 37.4881 148.558 39.9997 144 39.9997ZM140.465 28.8369H147.07C146.977 26.2323 145.767 25.116 143.814 25.116C142.326 25.209 140.93 26.0462 140.465 28.8369Z" fill="black"/>
</svg>
