<svg width="188" height="27" viewBox="0 0 188 27" fill="none" xmlns="http://www.w3.org/2000/svg">
<path d="M187.115 1.36214V25.843H180.207C180.207 25.843 171.833 11.2531 170.891 9.63059V25.843H165.349V1.36214H172.532C172.532 1.36214 180.663 15.5527 181.58 17.1627V1.36214H187.115ZM17.7402 1.36214C17.7402 1.36214 13.3282 14.9099 12.8727 16.3327C12.4047 14.9037 8.02395 1.36214 8.02395 1.36214H0.217285V25.843H5.6339V9.12512C6.51379 12.0144 10.7011 25.843 10.7011 25.843H14.8072C14.8072 25.843 19.2129 11.8521 20.0865 9.06272V25.843H25.5281V1.36214H17.7402ZM89.7412 21.1003H77.5476V15.4154H88.7303V10.6727H77.5476V6.11728H89.7412V1.36214H71.6505V25.843H89.7412V21.1003ZM61.4662 1.36214C61.4662 1.36214 54.9201 9.55571 53.9778 10.6353V1.36214H48.4114V25.843H53.9778V15.0347C54.9576 16.2391 61.6285 25.843 61.6285 25.843H69.3915C69.3915 25.843 59.1261 13.1501 58.7517 12.7008C59.1323 12.2765 68.8236 1.3559 68.8236 1.3559H61.4662V1.36214ZM138.372 13.5308C138.372 5.99871 142.435 0.875391 149.948 0.875391C157.362 0.875391 161.518 6.09856 161.518 13.5308C161.518 20.9755 157.436 26.3297 149.948 26.3297C142.366 26.336 138.372 21.0879 138.372 13.5308ZM144.282 13.5495C144.282 17.3561 145.817 21.1877 149.948 21.1877C154.098 21.1877 155.627 17.3561 155.627 13.5495C155.627 9.84276 153.979 6.03615 149.948 6.03615C145.929 6.04239 144.282 9.84276 144.282 13.5495ZM105.286 10.9598C102.615 10.2484 100.088 9.8178 100.038 8.08923C100.025 7.59624 100.194 7.19062 100.562 6.83492C101.504 5.94255 103.651 5.68669 105.348 5.8115C107.919 6.02367 109.429 6.46674 111.47 7.60248L112.674 2.62269C109.554 1.54935 107.164 0.837949 103.77 0.869151C97.629 0.931554 93.8349 3.95188 93.8349 8.7507C93.8349 13.6494 98.4902 14.9037 102.409 16.0332C104.955 16.7446 107.495 17.1252 107.495 19.0223C107.495 20.9131 104.425 21.5808 102.359 21.5808C99.9504 21.5808 97.7663 20.9256 95.1641 19.4092L93.579 24.3391C97.1048 25.7244 99.2453 26.3173 102.652 26.3173C106.378 26.3173 109.454 25.2814 111.314 23.4155C112.668 22.0801 113.373 20.3016 113.373 18.2797C113.373 13.3124 109.005 11.927 105.286 10.9598ZM127.502 10.9598C124.831 10.2484 122.285 9.8178 122.247 8.08923C122.241 7.59624 122.416 7.19062 122.771 6.83492C123.726 5.94255 125.867 5.68669 127.551 5.8115C130.122 6.02367 131.633 6.46674 133.692 7.60248L134.884 2.62269C131.764 1.54935 129.38 0.837949 125.979 0.869151C119.845 0.931554 116.05 3.95188 116.05 8.7507C116.05 13.6494 120.712 14.9037 124.625 16.0332C127.171 16.7446 129.717 17.1252 129.717 19.0223C129.717 20.9131 126.647 21.5808 124.575 21.5808C122.16 21.5808 119.982 20.9256 117.38 19.4092L115.788 24.3391C119.308 25.7244 121.461 26.3173 124.874 26.3173C128.594 26.3173 131.67 25.2814 133.548 23.4155C134.884 22.0801 135.601 20.3016 135.601 18.2797C135.577 13.3124 131.202 11.927 127.502 10.9598ZM38.7826 18.8538C40.8481 18.8538 42.8263 18.5044 44.4488 17.7306L42.7639 13.7742C41.9277 14.2859 40.923 14.5854 39.8435 14.5854C36.9729 14.5854 34.5953 13.1564 34.5953 9.88644C34.5953 6.61026 36.9667 5.18747 39.8435 5.18747C40.923 5.18747 41.9277 5.48076 42.7639 5.97999L44.4488 2.02985C42.8263 1.26853 40.8481 0.906593 38.7826 0.906593C32.9292 0.906593 29.2037 4.2639 29.2037 9.88644C29.2037 15.4965 32.9292 18.8538 38.7826 18.8538Z" fill="#0068AC"/>
</svg>
