<svg width="133" height="40" viewBox="0 0 133 40" fill="none" xmlns="http://www.w3.org/2000/svg">
<g clip-path="url(#clip0)">
<path fill-rule="evenodd" clip-rule="evenodd" d="M82.346 31.2813C74.6325 36.9667 63.4524 40.0001 53.8265 40.0001C40.3294 40.0001 28.1786 35.008 18.986 26.7053C18.2638 26.0524 18.9109 25.1626 19.7776 25.671C29.6982 31.4431 41.9646 34.9156 54.6354 34.9156C63.1808 34.9156 72.5814 33.1476 81.2251 29.4786C82.5309 28.9239 83.6229 30.3337 82.346 31.2813" fill="#FF9900"/>
<path fill-rule="evenodd" clip-rule="evenodd" d="M85.5527 27.612C84.5705 26.3525 79.0353 27.0169 76.5508 27.3116C75.7939 27.404 75.6784 26.7454 76.3602 26.2716C80.7687 23.1689 88.0025 24.0644 88.8461 25.1045C89.6897 26.1502 88.6265 33.4015 84.4838 36.8624C83.8483 37.394 83.2416 37.1108 83.5247 36.4059C84.4549 34.0832 86.5407 28.8774 85.5527 27.612" fill="#FF9900"/>
<path fill-rule="evenodd" clip-rule="evenodd" d="M76.724 4.36856V1.35252C76.724 0.89607 77.0707 0.589844 77.4867 0.589844H90.9895C91.4229 0.589844 91.7696 0.901848 91.7696 1.35252V3.93522C91.7638 4.36856 91.3998 4.93479 90.7526 5.83036L83.7557 15.8203C86.3557 15.7567 89.1002 16.1438 91.4575 17.4727C91.9891 17.7732 92.1336 18.2123 92.174 18.6456V21.8639C92.174 22.303 91.6887 22.8172 91.1802 22.5515C87.0259 20.3732 81.5081 20.1363 76.9147 22.5746C76.4467 22.8288 75.9556 22.3204 75.9556 21.8812V18.8247C75.9556 18.3336 75.9613 17.4958 76.4525 16.7505L84.5588 5.12546H77.504C77.0707 5.12546 76.724 4.81923 76.724 4.36856" fill="black"/>
<path fill-rule="evenodd" clip-rule="evenodd" d="M27.4679 23.1864H23.3599C22.967 23.1576 22.655 22.8629 22.6261 22.4873V1.40395C22.6261 0.982162 22.9786 0.647044 23.4177 0.647044H27.2484C27.6471 0.664366 27.9648 0.970603 27.9937 1.35194V4.10798H28.0688C29.0684 1.44439 30.9462 0.202148 33.4769 0.202148C36.0481 0.202148 37.6543 1.44439 38.8099 4.10798C39.8037 1.44439 42.0628 0.202148 44.4837 0.202148C46.2055 0.202148 48.0891 0.912824 49.2389 2.50751C50.5389 4.28131 50.2731 6.85823 50.2731 9.11738L50.2674 22.4238C50.2674 22.8456 49.9149 23.1864 49.4758 23.1864H45.3735C44.9633 23.1576 44.6339 22.8282 44.6339 22.4238V11.2494C44.6339 10.3596 44.7148 8.14092 44.5184 7.29735C44.2122 5.88178 43.2935 5.48311 42.1032 5.48311C41.1095 5.48311 40.0694 6.14756 39.6477 7.21069C39.2259 8.27381 39.2663 10.0534 39.2663 11.2494V22.4238C39.2663 22.8456 38.9139 23.1864 38.4748 23.1864H34.3725C33.9565 23.1576 33.6329 22.8282 33.6329 22.4238L33.6271 11.2494C33.6271 8.89782 34.0143 5.43688 31.0964 5.43688C28.144 5.43688 28.2595 8.81115 28.2595 11.2494V22.4238C28.2595 22.8456 27.9071 23.1864 27.4679 23.1864" fill="black"/>
<path fill-rule="evenodd" clip-rule="evenodd" d="M103.395 0.202148C109.49 0.202148 112.789 5.43688 112.789 12.093C112.789 18.5237 109.144 23.6256 103.395 23.6256C97.4089 23.6256 94.1501 18.3908 94.1501 11.8676C94.1501 5.30399 97.4493 0.202148 103.395 0.202148V0.202148ZM103.429 4.50665C100.402 4.50665 100.211 8.63203 100.211 11.2032C100.211 13.7801 100.171 19.2806 103.395 19.2806C106.578 19.2806 106.729 14.8432 106.729 12.1392C106.729 10.3596 106.653 8.23337 106.116 6.54623C105.654 5.07866 104.735 4.50665 103.429 4.50665" fill="black"/>
<path fill-rule="evenodd" clip-rule="evenodd" d="M120.693 23.1864H116.603C116.193 23.1576 115.863 22.8282 115.863 22.4238L115.857 1.33461C115.892 0.947491 116.233 0.647044 116.649 0.647044H120.457C120.815 0.664366 121.109 0.907048 121.19 1.23639V4.46043H121.265C122.415 1.57728 124.027 0.202148 126.864 0.202148C128.707 0.202148 130.504 0.866603 131.66 2.68663C132.735 4.37376 132.735 7.21069 132.735 9.25026V22.522C132.688 22.8918 132.347 23.1864 131.943 23.1864H127.823C127.448 23.1576 127.136 22.8802 127.095 22.522V11.0703C127.095 8.76493 127.361 5.39066 124.524 5.39066C123.525 5.39066 122.606 6.06089 122.149 7.07779C121.572 8.36626 121.497 9.64894 121.497 11.0703V22.4238C121.491 22.8456 121.133 23.1864 120.693 23.1864" fill="black"/>
<path fill-rule="evenodd" clip-rule="evenodd" d="M65.9599 13.1157C65.9599 14.7162 66.0004 16.0509 65.1915 17.4722C64.5386 18.6278 63.4986 19.3385 62.3488 19.3385C60.7714 19.3385 59.847 18.1367 59.847 16.3629C59.847 12.8615 62.9844 12.2259 65.9599 12.2259V13.1157V13.1157ZM70.1027 23.1287C69.8311 23.3714 69.4382 23.3887 69.132 23.227C67.7684 22.0945 67.52 21.5687 66.7746 20.4883C64.5213 22.7879 62.9208 23.4754 60.003 23.4754C56.542 23.4754 53.8553 21.3434 53.8553 17.0736C53.8553 13.7397 55.658 11.469 58.235 10.3597C60.4652 9.37745 63.5795 9.20412 65.9599 8.93256V8.401C65.9599 7.42454 66.0351 6.26897 65.4573 5.42541C64.9604 4.66851 64.0012 4.3565 63.1519 4.3565C61.5861 4.3565 60.1937 5.15962 59.8528 6.82364C59.7834 7.19343 59.5119 7.55743 59.1363 7.57477L55.1554 7.1472C54.8202 7.0721 54.4447 6.80053 54.5429 6.28631C55.4558 1.45602 59.8239 0 63.7297 0C65.7288 0 68.3404 0.531564 69.9178 2.04536C71.9169 3.91161 71.7262 6.40186 71.7262 9.11168V15.5135C71.7262 17.4376 72.5236 18.2811 73.2747 19.3211C73.5347 19.6909 73.5925 20.1358 73.2574 20.4132C72.4196 21.1123 70.9289 22.4123 70.1084 23.1403L70.1027 23.1287" fill="black"/>
<path fill-rule="evenodd" clip-rule="evenodd" d="M12.1046 13.1157C12.1046 14.7162 12.145 16.0509 11.3361 17.4722C10.6832 18.6278 9.64901 19.3385 8.49344 19.3385C6.91609 19.3385 5.99741 18.1367 5.99741 16.3629C5.99741 12.8615 9.13478 12.2259 12.1046 12.2259V13.1157V13.1157ZM16.2473 23.1287C15.9758 23.3714 15.5829 23.3887 15.2766 23.227C13.9131 22.0945 13.6704 21.5687 12.9193 20.4883C10.6659 22.7879 9.07123 23.4754 6.14763 23.4754C2.69248 23.4754 0 21.3434 0 17.0736C0 13.7397 1.80847 11.469 4.37961 10.3597C6.60986 9.37745 9.72413 9.20412 12.1046 8.93256V8.401C12.1046 7.42454 12.1797 6.26897 11.6077 5.42541C11.105 4.66851 10.1459 4.3565 9.30234 4.3565C7.73655 4.3565 6.3383 5.15962 5.99741 6.82364C5.92808 7.19343 5.65652 7.55743 5.28674 7.57477L1.30002 7.1472C0.964901 7.0721 0.595118 6.80053 0.687564 6.28631C1.60624 1.45602 5.96852 0 9.87435 0C11.8735 0 14.4851 0.531564 16.0624 2.04536C18.0616 3.91161 17.8709 6.40186 17.8709 9.11168V15.5135C17.8709 17.4376 18.6682 18.2811 19.4194 19.3211C19.6851 19.6909 19.7429 20.1358 19.4078 20.4132C18.57 21.1123 17.0793 22.4123 16.2589 23.1403L16.2473 23.1287" fill="black"/>
</g>
<defs>
<clipPath id="clip0">
<rect width="132.735" height="40" fill="white"/>
</clipPath>
</defs>
</svg>
