<svg width="40" height="40" viewBox="0 0 150 100" fill="none" xmlns="http://www.w3.org/2000/svg">
<path d="M115.501 26.688C115.501 26.688 113.13 24.8525 105.451 22.0323C98.7133 19.5525 93.5667 18.9829 93.5667 18.9829L93.5922 33.6884C93.5922 39.9039 86.5683 46.504 74.5728 46.504H74.2296C62.2354 46.504 55.214 39.9039 55.214 33.6884L55.2374 18.9829C55.2374 18.9829 50.0956 19.5521 43.3549 22.0323C35.6764 24.8525 33.3055 26.688 33.3055 26.688C33.8747 38.4819 52.1963 48.1989 74.3988 48.204H74.4039C96.6077 48.1989 114.934 38.4819 115.501 26.688" fill="black"/>
<path d="M115.511 59.711C115.511 59.711 113.141 61.5414 105.462 64.364C98.7189 66.8441 93.5767 67.4109 93.5767 67.4109L93.6026 52.7079C93.6026 46.4937 86.5784 39.8961 74.5832 39.8961L74.4144 39.8909H74.4092L74.2428 39.8961C62.2462 39.8961 55.2248 46.4937 55.2248 52.7079L55.251 67.4109C55.251 67.4109 50.1063 66.8441 43.366 64.364C35.6896 61.5414 33.3138 59.711 33.3138 59.711C33.8831 47.9181 52.2095 38.2012 74.4147 38.1936C96.6182 38.2012 114.945 47.9181 115.511 59.711ZM37.3063 80.9852C35.4346 80.9852 35.4008 79.5605 35.4008 79.0099V76.416C35.4008 76.2544 35.3905 76.0466 35.7234 76.0466H36.6878C37.0048 76.0466 36.9869 76.2654 36.9869 76.416V79.0099C36.9869 79.197 37.0182 79.6914 37.6991 79.6914H39.3212C39.9894 79.6914 40.0283 79.197 40.0283 79.0099V76.416C40.0283 76.2651 40.0069 76.0466 40.3222 76.0466H41.2994C41.6508 76.0466 41.6191 76.2654 41.6191 76.416V79.0099C41.6191 79.5615 41.5826 80.9852 39.7085 80.9852H37.3063ZM46.2721 80.6682C45.6119 79.7793 44.6681 78.6615 43.7065 77.4755V80.6365C43.7065 80.7768 43.7402 80.9852 43.4101 80.9852H42.5081C42.1832 80.9852 42.2197 80.7771 42.2197 80.6365V76.4095C42.2197 76.2641 42.2066 76.0453 42.5081 76.0453H44.2678C44.7643 76.0453 45.4741 77.0435 45.9368 77.7088C46.2983 78.2081 46.9584 78.9668 47.4029 79.5391V76.4091C47.4029 76.2637 47.3846 76.0449 47.7123 76.0449H48.6923C49.0041 76.0449 48.9865 76.2637 48.9865 76.4091V80.9839H47.18C46.792 80.9852 46.6256 81.0114 46.2721 80.6682V80.6682ZM49.584 80.9852V76.0515H53.9434C54.2087 76.0515 55.9997 76.0156 55.9997 77.8969C55.9997 79.8154 56.205 80.9852 53.9799 80.9852H51.63L51.1231 79.956V80.9852H49.584ZM53.7118 79.6855C54.5046 79.6855 54.4447 78.9268 54.4447 78.5781C54.4447 77.4135 54.117 77.366 53.5947 77.366H51.1069V79.6849L53.7118 79.6855V79.6855ZM57.7049 76.0828H61.7239C62.0619 76.0828 62.0178 76.3054 62.0178 76.7168C62.0178 77.1013 62.0698 77.3198 61.7239 77.3198H58.5474C58.464 77.3198 58.1732 77.2788 58.1732 77.5748C58.1732 77.8763 58.1184 77.9962 58.4357 77.9962H61.2432L61.6956 78.8951C61.7604 79.0199 61.7528 79.1294 61.5058 79.1294H58.599L58.1494 78.2505V79.5453C58.1494 79.8468 58.4171 79.7896 58.495 79.7896H61.7938C62.1215 79.7896 62.0929 80.0184 62.0929 80.3926C62.0929 80.793 62.1215 81.0169 61.7938 81.0169H57.6188C57.2704 81.0169 56.592 80.9084 56.592 79.8206V77.1017C56.592 76.8157 56.7401 76.0828 57.7049 76.0828V76.0828ZM63.1014 76.0511H67.4973C68.0872 76.0511 68.9452 76.0456 68.9452 77.6375C68.9452 78.6774 68.7243 78.729 68.2509 79.0516C69.0437 79.187 68.9372 80.2003 68.9372 80.7251C68.9372 80.9907 68.8411 80.9849 68.7629 80.9849H67.4735C67.2031 80.9849 67.2682 80.559 67.2682 80.3354C67.2682 79.7324 66.9302 79.7579 66.7975 79.7579H64.9C64.7181 79.4406 64.3646 78.7335 64.3646 78.7335V80.7819L64.1227 80.9845H62.8254L62.6955 80.8229V76.477C62.6959 76.171 62.9116 76.0511 63.1014 76.0511V76.0511ZM66.6028 77.3563H64.6454C64.3177 77.3563 64.3336 77.4649 64.3336 77.5644V78.4475H66.3482C67.3257 78.4475 67.3257 78.2032 67.3257 77.9486C67.3254 77.4394 67.284 77.3563 66.6028 77.3563ZM76.5148 76.0828C76.8373 76.0828 77.1515 76.2282 77.4906 76.8884C77.7194 77.3615 79.3157 80.2472 79.6534 80.8502V81.0162H77.9899L77.5109 80.1479H75.4877L75.0501 79.1546C74.9257 79.3572 74.2576 80.6259 74.0288 81.0155H72.3601V80.907C72.7005 80.2672 75.0246 76.0818 75.0246 76.0818L76.5148 76.0828ZM75.9952 77.4504L75.1789 78.9316L75.2544 79.005H76.7674L76.8428 78.9316L76.071 77.4452L75.9952 77.4504ZM80.7088 76.0511H85.1074C85.6949 76.0511 86.5529 76.0456 86.5529 77.6375C86.5529 78.6774 86.3341 78.729 85.861 79.0516C86.6573 79.187 86.5474 80.2003 86.5474 80.7251C86.5474 80.9907 86.4485 80.9849 86.3703 80.9849H85.0809C84.8111 80.9849 84.8783 80.559 84.8783 80.3354C84.8783 79.7324 84.5406 79.7579 84.4107 79.7579H82.5084C82.3262 79.4406 81.9719 78.7335 81.9719 78.7335V80.7819L81.7339 80.9845H80.4338L80.3039 80.8229V76.477C80.3036 76.171 80.5217 76.0511 80.7088 76.0511V76.0511ZM84.2133 77.3563H82.2535C81.9258 77.3563 81.942 77.4649 81.942 77.5644V78.4475H83.959C84.931 78.4475 84.931 78.2032 84.931 77.9486C84.9307 77.4394 84.8948 77.3563 84.2133 77.3563V77.3563ZM90.3951 80.9852C90.0681 80.3719 89.1581 78.677 88.5444 77.5644V80.6424C88.5444 80.7723 88.5654 80.9852 88.2485 80.9852H87.3595C87.0266 80.9852 87.0525 80.7723 87.0525 80.6424V76.415C87.0525 76.2641 87.0315 76.0508 87.3595 76.0508H88.8986C89.1274 76.0508 89.4544 75.9991 89.8186 76.732C90.0946 77.3195 90.6762 78.5416 91.0825 79.1863C91.4877 78.5416 92.0858 77.3195 92.3611 76.732C92.7198 75.9991 93.0368 76.0508 93.2973 76.0508H94.8309C95.1424 76.0508 95.1062 76.2641 95.1062 76.415V80.6424C95.1062 80.7723 95.1534 80.9852 94.8309 80.9852H93.9313C93.604 80.9852 93.6298 80.7723 93.6298 80.6424V77.5644C93.0058 78.677 92.1062 80.3712 91.7637 80.9852H90.3951ZM97.0809 80.9956C95.6251 80.9956 95.6879 79.4364 95.6879 78.4176C95.6879 77.4914 95.5835 76.0415 97.4082 76.026H100.653C102.483 76.026 102.363 77.4976 102.363 78.4176C102.363 79.4364 102.436 80.9956 100.954 80.9956H97.0809ZM100.013 79.7269C100.752 79.7269 100.725 78.9627 100.725 78.4537C100.725 77.9907 100.835 77.2729 99.8722 77.2729H98.2404C97.2842 77.2729 97.3979 77.9907 97.3979 78.4537C97.3979 78.9633 97.351 79.7269 98.0898 79.7269H100.013V79.7269ZM104.801 80.9852C102.935 80.9852 102.899 79.5605 102.899 79.0099V76.416C102.899 76.2544 102.889 76.0466 103.222 76.0466H104.189C104.506 76.0466 104.485 76.2654 104.485 76.416V79.0099C104.485 79.197 104.516 79.6914 105.197 79.6914H106.819C107.49 79.6914 107.526 79.197 107.526 79.0099V76.416C107.526 76.2651 107.511 76.0466 107.822 76.0466H108.794C109.148 76.0466 109.117 76.2654 109.117 76.416V79.0099C109.117 79.5615 109.085 80.9852 107.204 80.9852H104.801ZM110.156 76.0511H114.555C115.143 76.0511 116 76.0456 116 77.6375C116 78.6774 115.777 78.729 115.304 79.0516C116.1 79.187 115.996 80.2003 115.996 80.7251C115.996 80.9907 115.897 80.9849 115.818 80.9849H114.529C114.264 80.9849 114.326 80.559 114.326 80.3354C114.326 79.7324 113.983 79.7579 113.853 79.7579H111.956C111.774 79.4406 111.42 78.7335 111.42 78.7335V80.7819L111.175 80.9845H109.881L109.751 80.8229V76.477C109.751 76.171 109.969 76.0511 110.156 76.0511V76.0511ZM113.655 77.3563H111.7C111.373 77.3563 111.388 77.4649 111.388 77.5644V78.4475H113.405C114.377 78.4475 114.377 78.2032 114.377 77.9486C114.378 77.4394 114.336 77.3563 113.655 77.3563" fill="black"/>
</svg>
