<svg width="18" height="18" viewBox="0 0 18 18" fill="none" xmlns="http://www.w3.org/2000/svg">
<g clip-path="url(#clip0_1_2)">
<path d="M3.26875 2.44682H4.86421L6.38742 4.4648C8.2207 6.90718 10.0969 9.34351 11.9271 11.7862L14.5388 15.245C14.5798 15.2946 14.6754 15.4087 14.6899 15.4635C14.437 15.4635 14.1841 15.4635 13.9311 15.4635C13.0263 15.4635 13.328 15.5937 12.8637 15.0133L11.8659 13.7152C11.7551 13.5668 11.6469 13.43 11.538 13.2843L7.06841 7.44169C7.00755 7.36064 6.95958 7.30304 6.89867 7.22228L3.92475 3.32792C3.81168 3.17726 3.35292 2.60699 3.26875 2.44682ZM6.77102 9.76262C6.70831 9.85626 6.6402 9.91265 6.57642 9.99613C6.53809 10.0462 6.51629 10.0611 6.47445 10.1082C6.43203 10.1559 6.42566 10.176 6.37711 10.2248C6.23476 10.368 6.11864 10.5381 5.97834 10.6822L5.77581 10.9077C5.73295 10.9612 5.72565 10.9716 5.67632 11.0222L4.47031 12.404C4.42062 12.454 4.41517 12.4685 4.37203 12.5197L3.36127 13.6687C3.07638 13.9552 2.83936 14.2885 2.56359 14.5832L1.14328 16.1982C1.10084 16.2459 1.09446 16.266 1.0459 16.3149C0.996388 16.3646 0.990593 16.3796 0.947549 16.4305L0.549457 16.8885C0.507921 16.9353 0.485855 16.9511 0.447445 17.0006C0.406185 17.0536 0.367407 17.0724 0.350215 17.1368H3.13255C3.30517 16.879 3.55382 16.6709 3.74394 16.4251C3.90994 16.2105 4.11557 16.0291 4.28052 15.8137C4.44836 15.5946 4.64994 15.4037 4.82242 15.1882C5.06826 14.8811 5.36084 14.6058 5.60646 14.299C5.70746 14.1728 5.81103 14.0691 5.91203 13.9429C5.93961 13.9085 5.95766 13.8957 5.98802 13.8633C6.12243 13.7197 6.23729 13.5563 6.37711 13.4157L7.45677 12.1801C7.51938 12.1171 7.5492 12.0706 7.61273 12.0053C7.75182 11.8624 7.94496 11.5747 8.09407 11.4748C8.13167 11.5023 8.16606 11.5574 8.19968 11.6027L9.57259 13.4013C9.64323 13.4936 9.71192 13.5798 9.78397 13.6763L10.418 14.5016C11.0443 15.332 11.692 16.1496 12.3134 16.984C12.4338 17.1456 12.3841 17.1382 12.6469 17.1369L17.9976 17.1368C17.8877 16.929 17.7097 16.7401 17.5696 16.5531C17.4218 16.3558 17.2789 16.1653 17.1276 15.9638C16.9753 15.7609 16.8354 15.5808 16.6829 15.3774L15.3515 13.6151C15.0568 13.2218 14.7602 12.8394 14.462 12.4421L10.9153 7.75853L11.4748 7.1117C11.669 6.91652 12.0385 6.46798 12.2247 6.24668L13.1724 5.17078C13.2082 5.12386 13.2238 5.11275 13.2649 5.06879L14.1109 4.10533C14.1507 4.06062 14.1539 4.04403 14.1984 3.99829C14.2478 3.94763 14.2551 3.93728 14.2979 3.88373L16.4576 1.4127C16.5474 1.30069 16.8995 0.956413 16.9275 0.851351H14.1452C14.0959 0.944517 13.2462 1.90534 13.0992 2.06239C13.0618 2.10236 13.0635 2.1098 13.0303 2.14921C13.0052 2.1791 12.989 2.19026 12.963 2.21803L12.331 2.94799C12.1339 3.15859 11.9603 3.3949 11.7567 3.59955C11.5417 3.81578 11.322 4.09248 11.1236 4.32839L10.9874 4.48403C10.746 4.77112 10.4289 5.08932 10.2066 5.3766C10.1568 5.44103 10.1237 5.46346 10.0705 5.53225C10.0206 5.59666 9.9791 5.63258 9.92588 5.699C9.89835 5.73344 9.88025 5.74623 9.84989 5.77863C9.78572 5.84727 9.70317 5.97415 9.63117 6.02689C9.57415 5.9887 9.54798 5.94146 9.50346 5.88216L6.67927 2.14941C6.51318 1.92813 6.35896 1.72865 6.19283 1.50734C6.10798 1.3943 6.03438 1.29604 5.95114 1.1848C5.86464 1.06924 5.78141 0.971619 5.70089 0.851351H0C0.0279481 0.971325 2.02751 3.53672 2.10155 3.63347L4.43597 6.68865C4.4719 6.7356 4.49966 6.76615 4.53906 6.81903C4.57835 6.87167 4.60812 6.91429 4.64751 6.96352L6.56246 9.46527C6.61889 9.54087 6.74898 9.68025 6.77102 9.76262Z" fill="white"/>
</g>
<defs>
<clipPath id="clip0_1_2">
<rect width="18" height="18" fill="white"/>
</clipPath>
</defs>
</svg>
