<svg width="376" height="312" viewBox="0 0 376 312" fill="none" xmlns="http://www.w3.org/2000/svg">
<path fill-rule="evenodd" clip-rule="evenodd" d="M64.7775 88.8014C64.4528 92.2759 65.426 93.2234 62.1828 93.2234C44.3461 93.5394 33.644 96.2769 24.5637 106.069C5.10555 127.126 9.64591 161.555 37.5358 174.611C52.7783 181.876 68.3446 176.927 86.1813 178.823C94.2888 167.978 92.3431 173.242 104.342 170.61C112.126 172.189 108.883 172.189 114.072 178.296C117.314 173.348 114.072 177.98 117.963 175.348C124.125 164.609 125.098 121.125 147.475 133.865C154.609 137.971 155.258 151.027 157.204 160.713C159.15 170.4 162.717 184.193 163.041 193.353C166.609 200.407 165.636 217.358 170.176 223.465C176.014 215.884 182.175 168.083 190.931 161.661C201.309 153.869 210.389 165.872 210.389 165.872L213.957 168.82C214.281 168.504 214.606 167.767 214.606 167.978C214.93 168.188 215.254 167.346 215.578 167.241C216.551 165.977 216.227 166.083 217.524 164.714L221.092 156.607C224.334 125.758 247.036 121.862 252.549 145.236C255.143 155.343 264.224 198.933 267.791 203.776C277.845 193.668 271.034 178.296 293.736 178.507C302.167 178.612 310.599 178.928 318.707 178.823C330.058 178.612 332.003 175.98 340.111 174.19L343.678 171.979C345.3 169.347 350.813 165.346 353.731 161.661C371.892 138.287 361.191 103.858 331.679 94.908C316.761 90.2754 307.681 94.6974 296.33 99.5409L292.438 101.646L289.844 97.119C285.303 86.6958 276.547 77.9568 266.17 72.2712C250.928 63.8482 244.117 65.9538 225.632 66.1643C195.147 2.46525 123.8 -0.588207 87.1542 39.2106C66.3989 61.4267 69.3175 75.1138 64.7775 88.8014Z" fill="white"/>
<path fill-rule="evenodd" clip-rule="evenodd" d="M53.751 80.7993L58.2909 86.6958C62.507 88.2748 60.5613 87.9589 64.7774 88.8013C69.3173 75.1138 66.3988 61.4266 87.1541 39.2105C123.8 -0.588269 195.147 2.46519 225.632 66.1642C226.929 61.4266 230.496 57.0042 232.766 53.0035C226.605 43.8435 227.253 41.6324 217.524 30.8929C182.824 -6.58979 121.206 -11.2224 80.0194 28.4714C70.2902 37.7365 54.3995 61.3212 53.751 80.7993Z" fill="#F38323"/>
<path fill-rule="evenodd" clip-rule="evenodd" d="M221.092 156.607C224.659 161.029 224.659 166.504 228.875 170.715L236.982 145.973C238.28 143.867 237.307 144.709 239.253 143.656C250.279 166.188 248.333 231.467 274.602 214.621C280.115 211.146 284.979 198.196 287.898 190.931C307.681 190.615 332.004 194.09 346.273 184.193L340.111 174.19C332.004 175.98 330.058 178.612 318.707 178.823C310.599 178.928 302.168 178.612 293.736 178.507C271.034 178.296 277.845 193.668 267.791 203.776C264.224 198.933 255.143 155.343 252.549 145.236C247.036 121.862 224.335 125.758 221.092 156.607Z" fill="#2A267E"/>
<path fill-rule="evenodd" clip-rule="evenodd" d="M87.8028 185.035L86.1814 178.823C68.3446 176.927 52.7783 181.876 37.5358 174.611C9.64594 161.555 5.10558 127.126 24.5637 106.069C33.644 96.2769 44.3461 93.5394 62.1829 93.2234C61.5343 91.2229 61.8586 92.4864 60.5615 90.3808C58.6158 87.5379 59.9129 89.9594 58.2911 86.6958L53.7511 80.7994C20.3477 80.5889 -8.1908 114.597 2.18665 150.816C6.727 167.241 17.1048 178.296 30.7255 185.245C45.319 192.721 69.3175 192.3 88.1271 190.615L87.8028 185.035Z" fill="#07AAE7"/>
<path fill-rule="evenodd" clip-rule="evenodd" d="M117.963 175.348C117.315 181.666 117.315 183.034 114.072 186.825C112.45 184.087 111.802 180.718 110.504 177.875C108.234 174.085 107.261 175.138 104.343 170.61C92.3434 173.242 94.2891 167.978 86.1816 178.823L87.8031 185.035C88.1274 185.245 88.7759 187.351 88.7759 187.351C90.3977 190.405 89.4249 188.299 90.3977 189.773C93.9648 188.72 94.2891 187.878 96.5595 186.825C97.5323 184.403 95.262 185.982 98.8295 183.982C101.748 187.772 104.018 203.881 119.585 198.406L122.504 197.143C122.828 196.932 123.152 196.827 123.476 196.722C124.125 196.511 124.449 196.301 124.774 196.195C124.774 195.985 136.124 157.87 137.421 154.396L140.34 145.867C143.259 149.131 142.935 149.658 143.259 154.712C144.556 159.028 147.799 177.875 148.772 183.771C150.069 194.09 152.34 201.354 153.961 211.778C154.285 211.567 154.61 210.936 154.61 211.041L156.555 208.303C160.447 203.144 162.393 200.407 163.041 193.353C162.717 184.193 159.15 170.399 157.204 160.713C155.258 151.027 154.61 137.971 147.475 133.865C125.098 121.125 124.125 164.609 117.963 175.348Z" fill="#FCCC0B"/>
<path fill-rule="evenodd" clip-rule="evenodd" d="M217.524 164.714L213.957 174.295C212.66 172.716 214.281 175.453 212.66 172.189L210.39 165.872C210.39 165.872 201.309 153.869 190.932 161.661C182.175 168.083 176.014 215.884 170.176 223.465C165.636 217.358 166.609 200.407 163.041 193.353C162.393 200.407 160.447 203.144 156.555 208.303L154.61 211.041C154.61 210.936 154.285 211.567 153.961 211.778C155.907 220.517 156.231 229.466 161.42 233.888C167.906 239.258 176.987 237.679 180.878 231.256C184.445 225.57 190.932 197.143 193.526 188.404C194.499 182.613 195.472 176.085 198.39 172.084C200.661 175.559 202.606 180.402 204.228 184.508C209.741 186.509 215.254 189.773 221.416 185.14C226.281 181.876 227.254 176.611 228.875 170.715C224.659 166.504 224.659 161.029 221.092 156.607L217.524 164.714Z" fill="#A9CD38"/>
<path fill-rule="evenodd" clip-rule="evenodd" d="M296.655 84.2739L295.357 92.8024C295.357 93.1183 295.033 96.4874 295.033 96.9085C295.357 99.962 294.06 97.856 296.33 99.5409C307.681 94.6974 316.761 90.2754 331.679 94.908C361.191 103.858 371.893 138.287 353.732 161.661C350.813 165.346 345.3 169.347 343.679 171.979C344.003 175.138 344.652 176.822 346.273 180.086L352.111 179.665L356.327 177.349C357.624 176.19 357.948 175.559 359.245 174.295C361.515 172.084 363.461 169.978 365.407 167.346C385.514 138.813 373.515 96.2769 338.166 83.7474C314.491 75.4298 301.195 86.1693 296.655 84.2739Z" fill="#D81A66"/>
<path fill-rule="evenodd" clip-rule="evenodd" d="M225.632 66.1643C244.117 65.9538 250.927 63.8482 266.17 72.2712C276.547 77.9568 285.303 86.6958 289.844 97.119C293.736 95.961 290.492 97.5404 292.438 95.961L295.357 92.8024L296.654 84.2739C292.438 75.2193 281.412 66.1643 272.331 61.4267C258.711 54.0562 250.279 52.8981 232.766 53.0036C230.496 57.0042 226.929 61.4266 225.632 66.1643Z" fill="#08947C"/>
<path fill-rule="evenodd" clip-rule="evenodd" d="M96.5596 186.825C100.451 188.825 99.8024 196.09 106.288 200.091C115.369 205.671 120.234 200.723 123.477 199.775L124.774 196.195C124.449 196.301 124.125 196.511 123.477 196.722C123.152 196.827 122.828 196.932 122.504 197.143L119.585 198.406C104.018 203.881 101.748 187.772 98.8296 183.982C95.2621 185.982 97.5324 184.403 96.5596 186.825Z" fill="#FBFAC9"/>
<path fill-rule="evenodd" clip-rule="evenodd" d="M117.963 175.348C114.072 177.98 117.315 173.347 114.072 178.296C108.883 172.189 112.126 172.189 104.343 170.61C107.261 175.137 108.235 174.084 110.505 177.875C111.802 180.718 112.45 184.087 114.072 186.825C117.315 183.034 117.315 181.665 117.963 175.348Z" fill="#FBFAC9"/>
<path fill-rule="evenodd" clip-rule="evenodd" d="M193.525 188.404C196.769 184.824 195.796 185.14 197.093 180.718C197.417 180.928 197.741 181.033 198.066 181.244L204.228 184.508C202.606 180.402 200.66 175.559 198.39 172.084C195.471 176.085 194.499 182.613 193.525 188.404Z" fill="#FBFAC9"/>
<path fill-rule="evenodd" clip-rule="evenodd" d="M340.11 174.19L346.272 184.192C348.218 183.35 348.218 183.455 349.515 182.507C352.11 180.718 351.461 180.718 352.11 179.665L346.272 180.086C344.651 176.822 344.002 175.137 343.678 171.979L340.11 174.19Z" fill="#B42F67"/>
<path fill-rule="evenodd" clip-rule="evenodd" d="M137.421 154.396C140.988 151.974 138.394 157.66 140.34 151.869C141.961 158.818 139.691 151.764 143.258 154.712C142.934 149.658 143.258 149.131 140.34 145.867L137.421 154.396Z" fill="#FBFAC9"/>
<path fill-rule="evenodd" clip-rule="evenodd" d="M289.844 97.119L292.438 101.646L296.33 99.5409C294.06 97.856 295.357 99.962 295.033 96.9085C295.033 96.4874 295.357 93.1183 295.357 92.8024L292.438 95.9609C290.492 97.5404 293.736 95.961 289.844 97.119Z" fill="#8B8B8B"/>
<path fill-rule="evenodd" clip-rule="evenodd" d="M210.39 165.872L212.66 172.189C214.281 175.453 212.66 172.716 213.957 174.295L217.524 164.714C216.227 166.083 216.551 165.977 215.579 167.241C215.254 167.346 214.93 168.188 214.606 167.978C214.606 167.767 214.281 168.504 213.957 168.82L210.39 165.872Z" fill="#FBFAC9"/>
<path fill-rule="evenodd" clip-rule="evenodd" d="M62.1828 93.2234C65.426 93.2234 64.4528 92.2759 64.7774 88.8014C60.5614 87.9589 62.5071 88.2749 58.291 86.6958C59.9128 89.9594 58.6157 87.5379 60.5614 90.3808C61.8585 92.4864 61.5342 91.2229 62.1828 93.2234Z" fill="#8B8B8B"/>
<path fill-rule="evenodd" clip-rule="evenodd" d="M31.1322 279.063H9.66413C3.12744 279.063 0.300349 281.784 0.300349 288.455V311.005V311.89H10.7247V311.005V290.474C10.7247 289.42 11.2545 288.981 12.2266 288.981H30.7785C44.7366 288.981 49.949 279.327 49.949 270.374C49.949 260.894 44.2067 252.644 30.7785 252.644H0.211914V263.001H31.2207C36.8745 263.001 39.4362 266.599 39.4362 270.901C39.4362 275.026 37.0506 279.063 31.1322 279.063Z" fill="#D91A67"/>
<path fill-rule="evenodd" clip-rule="evenodd" d="M59.5781 265.547V293.633C59.5781 302.182 63.9707 308.718 72.5294 311.005C74.6913 311.583 77.1189 311.89 79.8088 311.89H88.4666C91.1564 311.89 93.584 311.583 95.7459 311.005C104.305 308.718 108.697 302.182 108.697 293.633V265.547H99.5092V293.283C99.5092 298.724 95.5343 302.849 88.1128 302.849H80.5156C73.0948 302.849 69.0307 298.724 69.0307 293.283V265.547H59.5781Z" fill="#A9D035"/>
<path fill-rule="evenodd" clip-rule="evenodd" d="M121.859 245.446V311.005V311.89H131.224V311.005V245.446H121.859Z" fill="#FFCD00"/>
<path fill-rule="evenodd" clip-rule="evenodd" d="M142.443 279.063C142.443 286.173 145.623 292.58 158.522 292.58H169.564C174.247 292.58 176.19 294.072 176.19 297.758C176.19 301.357 174.423 302.849 170.094 302.849H142.973V311.005V311.89H170.094C172.622 311.89 174.798 311.582 176.649 311.005C182.817 309.085 185.378 304.193 185.378 297.846C185.378 290.649 182.109 284.768 169.211 284.768H158.257C153.044 284.768 151.63 283.012 151.63 279.765C151.63 276.254 153.398 274.499 157.727 274.499H183.523V265.547H157.638C146.772 265.547 142.443 270.725 142.443 279.063Z" fill="#07AAE7"/>
<path fill-rule="evenodd" clip-rule="evenodd" d="M195.449 280.819V296.618C195.449 303.479 198.256 308.946 205.052 311.005C206.95 311.58 209.159 311.89 211.705 311.89H240.239V311.005V302.849H211.705C206.58 302.849 204.548 300.128 204.548 296.442V293.107H226.722C238.207 293.107 242.536 288.279 242.536 279.765C242.536 270.812 237.854 265.547 226.811 265.547H211.705C200.043 265.547 195.449 272.041 195.449 280.819ZM226.458 285.821H204.548V280.906C204.548 277.308 206.58 274.499 211.705 274.499H226.722C231.317 274.499 233.348 276.781 233.348 280.292C233.348 283.715 231.493 285.821 226.458 285.821Z" fill="#F8821E"/>
<path fill-rule="evenodd" clip-rule="evenodd" d="M278.139 252.644V311.005V311.89H288.563V311.005V287.139H319.041V311.005V311.89H329.554V311.005V252.644H319.041V276.781H288.563V252.644H278.139Z" fill="#089680"/>
<path fill-rule="evenodd" clip-rule="evenodd" d="M343.336 279.063V311.005V311.89H352.7V311.005V280.468C352.7 276.43 354.556 274.499 358.708 274.499H375.139V265.547H355.969C346.781 265.547 343.336 269.759 343.336 279.063Z" fill="#272682"/>
</svg>
