<svg version="1.1" xmlns="http://www.w3.org/2000/svg" width="175" height="165">
<path d="M0 0 C1.27230469 0.61875 1.27230469 0.61875 2.5703125 1.25 C9.2922821 4.86794082 17.30596 10.76710157 19.74609375 18.3046875 C19.87177734 19.14386719 19.87177734 19.14386719 20 20 C20.89138672 20.00386719 20.89138672 20.00386719 21.80078125 20.0078125 C29.29299044 20.35737125 34.82865673 22.78493221 41 27 C41.845625 27.94875 42.69125 28.8975 43.5625 29.875 C46.88514583 32.7716656 48.99888129 32.14235404 53.25 31.93359375 C61.46356504 32.13193268 69.14363071 36.45045643 75 42 C81.2312052 48.76809755 84 57.8830853 84 67 C83.09697042 76.86277614 79.9405456 84.89420332 73 92 C67.10926705 96.19072277 60.53435524 95.33347229 53.625 95.1875 C51.80548828 95.16719727 51.80548828 95.16719727 49.94921875 95.14648438 C46.96568794 95.11124582 43.98307542 95.06197525 41 95 C40.74605469 95.54269531 40.49210938 96.08539063 40.23046875 96.64453125 C39.88628906 97.35996094 39.54210937 98.07539062 39.1875 98.8125 C38.85105469 99.52019531 38.51460937 100.22789063 38.16796875 100.95703125 C36.43451467 103.98912651 34.91847585 105.66161416 31.625 106.875 C28.01217376 107.04703934 26.76542028 106.339971 24 104 C19.84871661 98.09069981 18.52578062 90.93536646 17 84 C16.5875 84.928125 16.175 85.85625 15.75 86.8125 C13.17647059 91.5 13.17647059 91.5 10 93 C6.25 92.6875 6.25 92.6875 3 92 C1.11298227 97.54060525 -0.62745104 103.08718509 -2.15625 108.73828125 C-3.10054636 111.26952011 -4.1942531 112.99410874 -6 115 C-9.23456289 115.98443218 -11.38025917 116.1297132 -14.6875 115.4375 C-18.46570822 113.08888408 -19.59167986 109.69843631 -20.61352539 105.44799805 C-21.18517425 102.51323183 -21.69843302 99.57462577 -22.1875 96.625 C-22.36474609 95.60277344 -22.54199219 94.58054687 -22.72460938 93.52734375 C-23.15819978 91.01955058 -23.58305238 88.51060438 -24 86 C-24.18175781 86.69867188 -24.36351563 87.39734375 -24.55078125 88.1171875 C-24.80214844 89.02726562 -25.05351563 89.93734375 -25.3125 90.875 C-25.55613281 91.77992187 -25.79976563 92.68484375 -26.05078125 93.6171875 C-27 96 -27 96 -30 98 C-32.59375 98.37890625 -32.59375 98.37890625 -35.5 98.5625 C-38.62282857 98.76817016 -41.01652836 99.00550945 -44 100 C-55.95252903 100.99995806 -67.69533614 101.02608931 -77.75 93.875 C-85.70674923 87.14128466 -89.62446401 79.31651995 -91 69 C-91.33104883 58.90301083 -88.05281201 49.71166791 -81.78125 41.82421875 C-77.90103867 37.85040583 -73.26641249 34.75547083 -68 33 C-66.64246327 30.49445938 -65.42835181 28.02485727 -64.25 25.4375 C-61.22619754 19.11088217 -58.16559403 13.84570632 -53 9 C-52.18789062 8.19369141 -52.18789062 8.19369141 -51.359375 7.37109375 C-37.89683404 -5.1792657 -16.4079921 -8.387472 0 0 Z " fill="#FCFCFC" transform="translate(91,4)"/>
<path d="M0 0 C1.27230469 0.61875 1.27230469 0.61875 2.5703125 1.25 C9.2922821 4.86794082 17.30596 10.76710157 19.74609375 18.3046875 C19.87177734 19.14386719 19.87177734 19.14386719 20 20 C20.89138672 20.00386719 20.89138672 20.00386719 21.80078125 20.0078125 C29.29299044 20.35737125 34.82865673 22.78493221 41 27 C41.845625 27.94875 42.69125 28.8975 43.5625 29.875 C46.88514583 32.7716656 48.99888129 32.14235404 53.25 31.93359375 C61.46356504 32.13193268 69.14363071 36.45045643 75 42 C81.2312052 48.76809755 84 57.8830853 84 67 C83.09697042 76.86277614 79.9405456 84.89420332 73 92 C67.10926705 96.19072277 60.53435524 95.33347229 53.625 95.1875 C51.80548828 95.16719727 51.80548828 95.16719727 49.94921875 95.14648438 C46.96568794 95.11124582 43.98307542 95.06197525 41 95 C40.74605469 95.54269531 40.49210938 96.08539063 40.23046875 96.64453125 C39.88628906 97.35996094 39.54210937 98.07539062 39.1875 98.8125 C38.85105469 99.52019531 38.51460937 100.22789063 38.16796875 100.95703125 C36.43451467 103.98912651 34.91847585 105.66161416 31.625 106.875 C28.01217376 107.04703934 26.76542028 106.339971 24 104 C19.84871661 98.09069981 18.52578062 90.93536646 17 84 C16.5875 84.928125 16.175 85.85625 15.75 86.8125 C13.17647059 91.5 13.17647059 91.5 10 93 C6.25 92.6875 6.25 92.6875 3 92 C1.11298227 97.54060525 -0.62745104 103.08718509 -2.15625 108.73828125 C-3.10054636 111.26952011 -4.1942531 112.99410874 -6 115 C-9.23456289 115.98443218 -11.38025917 116.1297132 -14.6875 115.4375 C-18.46570822 113.08888408 -19.59167986 109.69843631 -20.61352539 105.44799805 C-21.18517425 102.51323183 -21.69843302 99.57462577 -22.1875 96.625 C-22.36474609 95.60277344 -22.54199219 94.58054687 -22.72460938 93.52734375 C-23.15819978 91.01955058 -23.58305238 88.51060438 -24 86 C-24.18175781 86.69867188 -24.36351563 87.39734375 -24.55078125 88.1171875 C-24.80214844 89.02726562 -25.05351563 89.93734375 -25.3125 90.875 C-25.55613281 91.77992187 -25.79976563 92.68484375 -26.05078125 93.6171875 C-27 96 -27 96 -30 98 C-32.59375 98.37890625 -32.59375 98.37890625 -35.5 98.5625 C-38.62282857 98.76817016 -41.01652836 99.00550945 -44 100 C-55.95252903 100.99995806 -67.69533614 101.02608931 -77.75 93.875 C-85.70674923 87.14128466 -89.62446401 79.31651995 -91 69 C-91.33104883 58.90301083 -88.05281201 49.71166791 -81.78125 41.82421875 C-77.90103867 37.85040583 -73.26641249 34.75547083 -68 33 C-66.64246327 30.49445938 -65.42835181 28.02485727 -64.25 25.4375 C-61.22619754 19.11088217 -58.16559403 13.84570632 -53 9 C-52.18789062 8.19369141 -52.18789062 8.19369141 -51.359375 7.37109375 C-37.89683404 -5.1792657 -16.4079921 -8.387472 0 0 Z M-47.8125 24.0625 C-53.00153544 31.0306333 -55 38.36479719 -55 47 C-55.6290625 46.93039063 -56.258125 46.86078125 -56.90625 46.7890625 C-62.90862195 46.40939439 -66.68032962 47.0676203 -71.3046875 51.02734375 C-75.18031876 55.53700685 -76.63427912 60.72440343 -77.5625 66.5 C-76.5689869 72.6818593 -73.93637997 78.01396926 -69.5625 82.5 C-62.81101776 86.45208717 -56.63967487 86.2225148 -49 86 C-48.505 86.99 -48.505 86.99 -48 88 C-48 87.34 -48 86.68 -48 86 C-47.360625 85.855625 -46.72125 85.71125 -46.0625 85.5625 C-44.02454854 85.18992819 -44.02454854 85.18992819 -43 84 C-41.00041636 83.95919217 -38.99954746 83.95745644 -37 84 C-36.34 85.65 -35.68 87.3 -35 89 C-32.84104662 88.20916724 -32.84104662 88.20916724 -32.36157227 86.20581055 C-32.18166748 85.44051025 -32.0017627 84.67520996 -31.81640625 83.88671875 C-31.61080078 83.05076172 -31.40519531 82.21480469 -31.19335938 81.35351562 C-30.77561948 79.58814424 -30.358938 77.82252204 -29.94335938 76.05664062 C-29.73646484 75.21681641 -29.52957031 74.37699219 -29.31640625 73.51171875 C-29.13537354 72.74303467 -28.95434082 71.97435059 -28.76782227 71.18237305 C-27.89738116 68.70832758 -26.66129606 67.0131807 -25 65 C-22.6875 65 -22.6875 65 -20 66 C-16.66899036 72.93255813 -15.92257832 80.18557138 -14.9375 87.75 C-14.6196876 90.162311 -14.29572995 92.57382249 -13.96484375 94.984375 C-13.8268335 96.04366211 -13.68882324 97.10294922 -13.54663086 98.19433594 C-13.03604861 100.81497518 -12.32889677 102.70334599 -11 105 C-8.67815625 102.67815625 -8.47807536 101.50837429 -7.78125 98.3515625 C-7.57113281 97.42859375 -7.36101562 96.505625 -7.14453125 95.5546875 C-6.82548828 94.10449219 -6.82548828 94.10449219 -6.5 92.625 C-6.07758933 90.72031187 -5.65066707 88.81661743 -5.21875 86.9140625 C-5.03248047 86.0679541 -4.84621094 85.2218457 -4.65429688 84.35009766 C-4.01078581 82.03874039 -3.14664101 80.10116512 -2 78 C4.52307692 78.49230769 4.52307692 78.49230769 6.9375 81.0625 C7.288125 81.701875 7.63875 82.34125 8 83 C9.71112471 79.266637 11.13547174 75.75476209 12.0625 71.75 C13 68 13 68 15 65 C18.125 64.8125 18.125 64.8125 21 65 C23.58239176 70.90260974 24.77110974 76.80283112 25.86767578 83.1171875 C26.75132291 88.0535035 27.99467646 92.41640333 30 97 C32.00993705 94.99006295 32.89940919 93.40788768 34.125 90.875 C34.47820312 90.15054688 34.83140625 89.42609375 35.1953125 88.6796875 C35.46085937 88.12539062 35.72640625 87.57109375 36 87 C37.80984375 86.94392578 37.80984375 86.94392578 39.65625 86.88671875 C41.27086178 86.82100781 42.88544378 86.75456229 44.5 86.6875 C45.29148437 86.66494141 46.08296875 86.64238281 46.8984375 86.61914062 C53.83127867 86.30659451 59.72851566 85.27148434 64.8125 80.1875 C69.0676951 73.98707285 70.96992259 69.51034657 70 62 C68.04681197 56.14043591 65.51615248 51.77971761 60.4375 48.1875 C54.28447706 46.06191026 48.34776436 46.04497721 42.3125 48.5 C41.549375 48.995 40.78625 49.49 40 50 C39.690625 48.9790625 39.690625 48.9790625 39.375 47.9375 C36.79624544 42.42834254 32.64938292 37.53601241 27.2109375 34.64453125 C22.30162304 33.21337068 17.05605269 33.72628888 12 34 C11.7421875 33.113125 11.484375 32.22625 11.21875 31.3125 C7.85466209 22.16908158 0.66649778 16.02082029 -8 12 C-24.119554 5.65716328 -37.11389137 11.89482869 -47.8125 24.0625 Z " fill="#EF8120" transform="translate(91,4)"/>
<path d="M0 0 C9.0943341 3.04830948 16.67088886 7.69344926 21.30859375 16.31640625 C25.81265616 26.58717617 26.43368221 37.00195072 22.45703125 47.58203125 C19.31823074 54.26793151 15.45180969 59.70229318 8.30859375 62.31640625 C3.84366202 62.67859912 -0.59067481 62.59846396 -5.06640625 62.50390625 C-6.88591797 62.48360352 -6.88591797 62.48360352 -8.7421875 62.46289062 C-11.72571831 62.42765207 -14.70833083 62.3783815 -17.69140625 62.31640625 C-17.94535156 62.85910156 -18.19929688 63.40179688 -18.4609375 63.9609375 C-18.80511719 64.67636719 -19.14929688 65.39179687 -19.50390625 66.12890625 C-19.84035156 66.83660156 -20.17679687 67.54429688 -20.5234375 68.2734375 C-22.25689158 71.30553276 -23.7729304 72.97802041 -27.06640625 74.19140625 C-30.67923249 74.36344559 -31.92598597 73.65637725 -34.69140625 71.31640625 C-38.84268964 65.40710606 -40.16562563 58.25177271 -41.69140625 51.31640625 C-42.10390625 52.24453125 -42.51640625 53.17265625 -42.94140625 54.12890625 C-45.51493566 58.81640625 -45.51493566 58.81640625 -48.69140625 60.31640625 C-52.44140625 60.00390625 -52.44140625 60.00390625 -55.69140625 59.31640625 C-57.57842398 64.8570115 -59.31885729 70.40359134 -60.84765625 76.0546875 C-61.79195261 78.58592636 -62.88565935 80.31051499 -64.69140625 82.31640625 C-67.92596914 83.30083843 -70.07166542 83.44611945 -73.37890625 82.75390625 C-77.15711447 80.40529033 -78.28308611 77.01484256 -79.30493164 72.7644043 C-79.8765805 69.82963808 -80.38983927 66.89103202 -80.87890625 63.94140625 C-81.14477539 62.40806641 -81.14477539 62.40806641 -81.41601562 60.84375 C-81.84960603 58.33595683 -82.27445863 55.82701063 -82.69140625 53.31640625 C-82.87316406 54.01507813 -83.05492188 54.71375 -83.2421875 55.43359375 C-83.49355469 56.34367187 -83.74492188 57.25375 -84.00390625 58.19140625 C-84.24753906 59.09632812 -84.49117187 60.00125 -84.7421875 60.93359375 C-85.69140625 63.31640625 -85.69140625 63.31640625 -88.69140625 65.31640625 C-92.53052845 66.425486 -94.24349332 66.49388118 -98.00390625 65.00390625 C-100.69140625 63.31640625 -100.69140625 63.31640625 -101.69140625 61.31640625 C-102.35140625 61.06890625 -103.01140625 60.82140625 -103.69140625 60.56640625 C-105.69140625 59.31640625 -105.69140625 59.31640625 -106.44140625 56.19140625 C-106.52390625 55.24265625 -106.60640625 54.29390625 -106.69140625 53.31640625 C-103.92492856 51.36359847 -101.93392198 50.35520877 -98.56640625 49.81640625 C-97.61765625 49.98140625 -96.66890625 50.14640625 -95.69140625 50.31640625 C-94.01171875 52.84765625 -94.01171875 52.84765625 -92.69140625 55.31640625 C-92.56088867 54.76702393 -92.43037109 54.2176416 -92.29589844 53.65161133 C-91.69123654 51.14057011 -91.06654021 48.63492574 -90.44140625 46.12890625 C-90.23644531 45.26458984 -90.03148438 44.40027344 -89.8203125 43.50976562 C-88.56996296 38.56520152 -87.3367731 35.07861178 -83.69140625 31.31640625 C-81.37890625 31.50390625 -81.37890625 31.50390625 -78.69140625 32.31640625 C-75.01023204 36.83845782 -74.54581825 42.29774355 -73.62890625 47.87890625 C-73.4597168 48.85875488 -73.29052734 49.83860352 -73.11621094 50.84814453 C-72.63129902 53.66932283 -72.15972423 56.49243319 -71.69140625 59.31640625 C-71.45896321 60.68760692 -71.22598292 62.05871676 -70.9921875 63.4296875 C-70.54851331 66.05711976 -70.11325555 68.68539877 -69.69140625 71.31640625 C-67.67445089 65.51765958 -66.1118211 59.61811529 -64.546875 53.68554688 C-64.33675781 52.91017578 -64.12664062 52.13480469 -63.91015625 51.3359375 C-63.72388672 50.63573486 -63.53761719 49.93553223 -63.34570312 49.21411133 C-62.69140625 47.31640625 -62.69140625 47.31640625 -60.69140625 44.31640625 C-54.16832933 44.93179087 -54.16832933 44.93179087 -51.75390625 46.87890625 C-51.40328125 47.35328125 -51.05265625 47.82765625 -50.69140625 48.31640625 C-49.38303487 45.32584309 -48.46018937 42.42921273 -47.75390625 39.25390625 C-46.95120042 36.01244528 -46.30963455 33.56060194 -43.69140625 31.31640625 C-40.69140625 30.75390625 -40.69140625 30.75390625 -37.69140625 31.31640625 C-34.15594152 35.66706585 -33.58308395 40.8275925 -32.62890625 46.19140625 C-31.56069149 52.00009215 -30.42350563 57.66591315 -28.69140625 63.31640625 C-28.16740234 62.35927734 -28.16740234 62.35927734 -27.6328125 61.3828125 C-27.17777344 60.55652344 -26.72273438 59.73023438 -26.25390625 58.87890625 C-25.80144531 58.05519531 -25.34898438 57.23148438 -24.8828125 56.3828125 C-23.69140625 54.31640625 -23.69140625 54.31640625 -22.69140625 53.31640625 C-19.04164492 53.11132081 -15.39846935 52.9705199 -11.74414062 52.88671875 C-5.26035726 52.63014694 0.84352557 51.78147443 5.62109375 47.00390625 C6.17796875 46.11703125 6.73484375 45.23015625 7.30859375 44.31640625 C8.17484375 42.95515625 8.17484375 42.95515625 9.05859375 41.56640625 C11.2174498 35.95338053 10.92352576 31.2582968 9.12109375 25.56640625 C6.55991829 20.97395369 3.39805641 17.06136488 -1.69140625 15.31640625 C-4.35805578 14.87453369 -6.99835072 14.5857118 -9.69140625 14.31640625 C-9.59859375 12.52203125 -9.59859375 12.52203125 -9.50390625 10.69140625 C-9.48196688 6.5814303 -10.56010191 3.86858015 -12.69140625 0.31640625 C-8.62748772 -1.71555301 -4.26294647 -1.08275128 0 0 Z " fill="#D91867" transform="translate(149.69140625,36.68359375)"/>
<path d="M0 0 C1.051875 -0.01417969 2.10375 -0.02835938 3.1875 -0.04296875 C6 0.1875 6 0.1875 9 2.1875 C8.0625 10.22321429 8.0625 10.22321429 7 14.1875 C6.35933594 14.20167969 5.71867187 14.21585938 5.05859375 14.23046875 C-0.21919567 14.5214944 -4.35751905 15.0717354 -8.52734375 18.47265625 C-12.26025266 22.8194653 -13.6700405 28.1344187 -14.5625 33.6875 C-13.55710587 39.94328567 -11.22431536 45.31490654 -6.33203125 49.43359375 C-1.77363487 51.833031 2.27147325 51.95146362 7.34179688 52.14453125 C9.41796875 52.3046875 9.41796875 52.3046875 13 53.1875 C14.8515625 56.171875 14.8515625 56.171875 16 59.1875 C18.05093145 60.59216953 18.05093145 60.59216953 20 61.1875 C20 61.8475 20 62.5075 20 63.1875 C20.99 63.5175 21.98 63.8475 23 64.1875 C19.05625327 68.13124673 14.16638666 67.4209814 8.9375 67.4375 C-2.86486523 67.4120591 -11.31499343 65.72276507 -20 57.1875 C-26.59200925 49.68872965 -29.49989221 40.51684213 -28.9375 30.5625 C-27.62366651 20.84851836 -23.54735206 11.54749074 -15.71875 5.39453125 C-10.36941777 1.73857529 -6.56451547 0.04022375 0 0 Z " fill="#21A7DF" transform="translate(29,36.8125)"/>
<path d="M0 0 C2.3125 0.1875 2.3125 0.1875 5 1 C8.68117421 5.52205157 9.145588 10.9813373 10.0625 16.5625 C10.23168945 17.54234863 10.40087891 18.52219727 10.57519531 19.53173828 C11.06010723 22.35291658 11.53168202 25.17602694 12 28 C12.23244304 29.37120067 12.46542333 30.74231051 12.69921875 32.11328125 C13.14289294 34.74071351 13.5781507 37.36899252 14 40 C16.01695536 34.20125333 17.57958515 28.30170904 19.14453125 22.36914062 C19.35464844 21.59376953 19.56476563 20.81839844 19.78125 20.01953125 C19.96751953 19.31932861 20.15378906 18.61912598 20.34570312 17.89770508 C21 16 21 16 23 13 C29.625 13.625 29.625 13.625 33 17 C33.99 14.36 34.98 11.72 36 9 C39.77288199 11.51525466 40.32806873 13.46889398 41.62109375 17.6796875 C42 20 42 20 40.9375 23.375 C37.74111675 27.70558376 37.74111675 27.70558376 35 29 C31.25 28.6875 31.25 28.6875 28 28 C26.11298227 33.54060525 24.37254896 39.08718509 22.84375 44.73828125 C21.89945364 47.26952011 20.8057469 48.99410874 19 51 C15.76543711 51.98443218 13.61974083 52.1297132 10.3125 51.4375 C6.53429178 49.08888408 5.40832014 45.69843631 4.38647461 41.44799805 C3.81482575 38.51323183 3.30156698 35.57462577 2.8125 32.625 C2.63525391 31.60277344 2.45800781 30.58054687 2.27539062 29.52734375 C1.84180022 27.01955058 1.41694762 24.51060438 1 22 C0.81824219 22.69867188 0.63648437 23.39734375 0.44921875 24.1171875 C0.19785156 25.02726562 -0.05351563 25.93734375 -0.3125 26.875 C-0.55613281 27.77992187 -0.79976562 28.68484375 -1.05078125 29.6171875 C-2 32 -2 32 -5 34 C-8.8391222 35.10907975 -10.55208707 35.17747493 -14.3125 33.6875 C-17 32 -17 32 -18 30 C-18.66 29.7525 -19.32 29.505 -20 29.25 C-22 28 -22 28 -22.75 24.875 C-22.8325 23.92625 -22.915 22.9775 -23 22 C-20.23352231 20.04719222 -18.24251573 19.03880252 -14.875 18.5 C-13.92625 18.665 -12.9775 18.83 -12 19 C-10.3203125 21.53125 -10.3203125 21.53125 -9 24 C-8.86948242 23.45061768 -8.73896484 22.90123535 -8.60449219 22.33520508 C-7.99983029 19.82416386 -7.37513396 17.31851949 -6.75 14.8125 C-6.54503906 13.94818359 -6.34007813 13.08386719 -6.12890625 12.19335938 C-4.87855671 7.24879527 -3.64536685 3.76220553 0 0 Z " fill="#A9C837" transform="translate(66,68)"/>
<path d="M0 0 C3 0.5625 3 0.5625 4.55859375 2.48046875 C6.5254854 6.68609886 7.25281471 10.88593577 8.0625 15.4375 C9.13071476 21.2461859 10.26790062 26.9120069 12 32.5625 C12.34933594 31.92441406 12.69867188 31.28632812 13.05859375 30.62890625 C13.74115234 29.38947266 13.74115234 29.38947266 14.4375 28.125 C15.11619141 26.88943359 15.11619141 26.88943359 15.80859375 25.62890625 C17 23.5625 17 23.5625 18 22.5625 C20.95583591 22.32828632 23.85236798 22.19149406 26.8125 22.125 C27.63298828 22.07923828 28.45347656 22.03347656 29.29882812 21.98632812 C31.67616609 21.941982 33.69220397 21.98203215 36 22.5625 C40 27.07236343 40 27.07236343 40 30.5625 C36.16275828 31.46663673 32.62497726 31.66826898 28.6875 31.625 C27.08455078 31.61146484 27.08455078 31.61146484 25.44921875 31.59765625 C24.64097656 31.58605469 23.83273438 31.57445313 23 31.5625 C22.61908203 32.37654297 22.61908203 32.37654297 22.23046875 33.20703125 C21.88628906 33.92246094 21.54210937 34.63789062 21.1875 35.375 C20.68283203 36.43654297 20.68283203 36.43654297 20.16796875 37.51953125 C18.43451467 40.55162651 16.91847585 42.22411416 13.625 43.4375 C10.01217376 43.60953934 8.76542028 42.902471 6 40.5625 C2.1840335 34.61408163 1.02455402 28.65250923 -0.19140625 21.734375 C-1.0009458 18.55878991 -1.86893938 16.98938908 -4 14.5625 C-7.03752039 10.33166803 -7.03752039 10.33166803 -6.875 7 C-5.38335357 2.84469923 -4.52827898 0.84905231 0 0 Z " fill="#413889" transform="translate(109,67.4375)"/>
<path d="M0 0 C9.87125977 2.38364663 17.58526135 8.1950789 22.9453125 16.7421875 C24.50033231 20.07108177 24.4610613 22.38835317 24 26 C22.71086513 26.67154933 21.41859796 27.33708859 20.125 28 C19.40570313 28.37125 18.68640625 28.7425 17.9453125 29.125 C16 30 16 30 14 30 C13.0918197 28.66006185 12.24880631 27.27571688 11.4375 25.875 C8.12016726 20.81925731 4.68181358 17.27776846 -1 15 C-4.34872386 14.61676092 -4.34872386 14.61676092 -7.8125 14.5625 C-13.53356077 14.38852622 -13.53356077 14.38852622 -15.75390625 12.5390625 C-17.29087563 10.00065314 -18.02010599 7.72381559 -17.9375 4.75 C-14.17743899 -2.26878056 -7.04357683 -0.67189532 0 0 Z " fill="#08947D" transform="translate(117,24)"/>
<path d="M0 0 C2.3125 0.1875 2.3125 0.1875 5 1 C7.93228353 4.9072678 8.78953227 8.74884802 9.6875 13.5 C9.93886719 14.7890625 10.19023438 16.078125 10.44921875 17.40625 C10.90216278 20.36162949 11.12019818 23.02366422 11 26 C10.34 26 9.68 26 9 26 C8.9175 26.9075 8.835 27.815 8.75 28.75 C8 32 8 32 4 36 C2.515 29.07 2.515 29.07 1 22 C0.566875 23.60875 0.13375 25.2175 -0.3125 26.875 C-1.625 31.75 -1.625 31.75 -5 34 C-8.8391222 35.10907975 -10.55208707 35.17747493 -14.3125 33.6875 C-17 32 -17 32 -18 30 C-18.66 29.7525 -19.32 29.505 -20 29.25 C-22 28 -22 28 -22.75 24.875 C-22.8325 23.92625 -22.915 22.9775 -23 22 C-20.23352231 20.04719222 -18.24251573 19.03880252 -14.875 18.5 C-13.92625 18.665 -12.9775 18.83 -12 19 C-10.3203125 21.53125 -10.3203125 21.53125 -9 24 C-8.86948242 23.45061768 -8.73896484 22.90123535 -8.60449219 22.33520508 C-7.99983029 19.82416386 -7.37513396 17.31851949 -6.75 14.8125 C-6.54503906 13.94818359 -6.34007813 13.08386719 -6.12890625 12.19335938 C-4.87855671 7.24879527 -3.64536685 3.76220553 0 0 Z " fill="#FED012" transform="translate(66,68)"/>
<path d="M0 0 C1.051875 -0.00515625 2.10375 -0.0103125 3.1875 -0.015625 C6 0.25 6 0.25 9 2.25 C10.41584158 9.00247525 10.41584158 9.00247525 9.1875 12.6875 C8 14.25 8 14.25 6 15.25 C3.95944995 15.32065617 1.91665743 15.33421976 -0.125 15.3125 C-1.22070312 15.30347656 -2.31640625 15.29445312 -3.4453125 15.28515625 C-4.70988281 15.26775391 -4.70988281 15.26775391 -6 15.25 C-5.01 16.735 -5.01 16.735 -4 18.25 C-0.88389446 18.83592634 -0.88389446 18.83592634 2.625 18.9375 C3.81351563 19.00324219 5.00203125 19.06898438 6.2265625 19.13671875 C7.14179688 19.17410156 8.05703125 19.21148437 9 19.25 C9 20.9 9 22.55 9 24.25 C6.39521117 24.3309313 3.79293347 24.39045434 1.1875 24.4375 C0.08051758 24.47520508 0.08051758 24.47520508 -1.04882812 24.51367188 C-6.4593196 24.58711746 -6.4593196 24.58711746 -8.9609375 23.02734375 C-12.24642774 17.40742624 -11.10856747 10.12740148 -9.765625 4.0625 C-7.89927858 -0.35578947 -4.14908843 -0.02033867 0 0 Z M-5 6.25 C-5.33 7.57 -5.66 8.89 -6 10.25 C-2.37 10.25 1.26 10.25 5 10.25 C5 8.93 5 7.61 5 6.25 C1.7 6.25 -1.6 6.25 -5 6.25 Z " fill="#3D3487" transform="translate(165,140.75)"/>
<path d="M0 0 C2.75105422 -0.10812003 5.49785087 -0.18734945 8.25 -0.25 C9.02730469 -0.28351563 9.80460938 -0.31703125 10.60546875 -0.3515625 C14.33725562 -0.41535373 16.36491295 -0.42929916 19.51953125 1.703125 C21.24514174 4.38032545 21.50983826 5.8364067 21.4375 9 C21.43621094 9.845625 21.43492188 10.69125 21.43359375 11.5625 C20.91539465 14.47561927 20.0258706 15.86449405 18 18 C14.98509443 19.00496852 12.95818308 19.10335303 9.8125 19.0625 C8.224375 19.041875 6.63625 19.02125 5 19 C5 22.63 5 26.26 5 30 C3.35 30 1.7 30 0 30 C-0.05383848 27.54137599 -0.09359038 25.0839245 -0.125 22.625 C-0.14175781 21.92632812 -0.15851562 21.22765625 -0.17578125 20.5078125 C-0.19344267 18.67102514 -0.10303261 16.83398037 0 15 C2.85793316 12.14206684 5.14665584 12.59200059 9.125 12.375 C10.40632812 12.30023438 11.68765625 12.22546875 13.0078125 12.1484375 C13.99523438 12.09945312 14.98265625 12.05046875 16 12 C15.67 10.35 15.34 8.7 15 7 C10.05 6.67 5.1 6.34 0 6 C0 4.02 0 2.04 0 0 Z " fill="#3D3487" transform="translate(0,135)"/>
<path d="M0 0 C2.75164432 -0.13517903 5.49664521 -0.23415251 8.25 -0.3125 C9.02730469 -0.35439453 9.80460937 -0.39628906 10.60546875 -0.43945312 C16.37621812 -0.56275974 16.37621812 -0.56275974 19.515625 2.26953125 C21.57091684 6.05018651 21.86420096 8.80608358 21 13 C19.20636089 15.8100346 17.98119065 17.50940468 15 19 C13.29297265 19.06996014 11.58331997 19.08440154 9.875 19.0625 C8.26625 19.041875 6.6575 19.02125 5 19 C5 22.63 5 26.26 5 30 C3.35 30 1.7 30 0 30 C-0.02684679 27.35409986 -0.04676357 24.70846904 -0.0625 22.0625 C-0.07087891 21.30775391 -0.07925781 20.55300781 -0.08789062 19.77539062 C-0.09652441 17.85005687 -0.05224333 15.92464419 0 14 C1.87824891 12.12175109 5.03935276 12.60897603 7.5625 12.4375 C8.76003906 12.35371094 9.95757812 12.26992187 11.19140625 12.18359375 C12.11824219 12.12300781 13.04507813 12.06242188 14 12 C14.5534764 9.92446352 15 8.15634036 15 6 C10.05 6 5.1 6 0 6 C0 4.02 0 2.04 0 0 Z " fill="#3D3487" transform="translate(75,135)"/>
<path d="M0 0 C2.93423195 1.79646854 4.47205355 2.9441071 6 6 C6.14851844 7.93359586 6.22130833 9.87342097 6.25 11.8125 C6.27578125 12.85019531 6.3015625 13.88789063 6.328125 14.95703125 C5.95701851 18.39860214 5.04491005 20.23540073 3 23 C0.43435275 24.28282363 -1.51033069 24.20391953 -4.375 24.25 C-5.33148438 24.27578125 -6.28796875 24.3015625 -7.2734375 24.328125 C-10.43428645 23.9477363 -11.73991733 23.20848261 -14 21 C-15.05336511 17.83990467 -15.20032888 15.4446864 -15.25 12.125 C-15.28867187 10.58199219 -15.28867187 10.58199219 -15.328125 9.0078125 C-14.95503198 5.58779313 -14.03027507 3.74974147 -12 1 C-8.30274625 -0.84862688 -4.03538558 -0.47587094 0 0 Z M-10 7 C-10.1245486 8.64230364 -10.17568524 10.29052276 -10.1875 11.9375 C-10.20167969 12.83339844 -10.21585938 13.72929687 -10.23046875 14.65234375 C-10.23194769 17.19114534 -10.23194769 17.19114534 -8 19 C-3.94738713 19.34490322 -2.45245824 19.30163882 1 17 C1.40214757 14.5989559 1.40214757 14.5989559 1.25 11.9375 C1.23453125 11.03902344 1.2190625 10.14054688 1.203125 9.21484375 C1.24059115 7.02740001 1.24059115 7.02740001 0 6 C-1.49738124 5.9020943 -2.99942892 5.87025136 -4.5 5.875 C-5.3146875 5.87242187 -6.129375 5.86984375 -6.96875 5.8671875 C-8.99530377 5.7754822 -8.99530377 5.7754822 -10 7 Z " fill="#3D3487" transform="translate(55,141)"/>
<path d="M0 0 C1.03543945 0.05027344 1.03543945 0.05027344 2.09179688 0.1015625 C3.14463867 0.12863281 3.14463867 0.12863281 4.21875 0.15625 C5.94785123 0.20330037 7.67624893 0.27504377 9.40429688 0.3515625 C9.44701788 2.01768155 9.4449352 3.68539135 9.40429688 5.3515625 C8.40429688 6.3515625 8.40429688 6.3515625 5.68164062 6.44921875 C4.02841797 6.43181641 4.02841797 6.43181641 2.34179688 6.4140625 C0.68470703 6.40052734 0.68470703 6.40052734 -1.00585938 6.38671875 C-1.86050781 6.37511719 -2.71515625 6.36351562 -3.59570312 6.3515625 C-3.26570312 7.3415625 -2.93570313 8.3315625 -2.59570312 9.3515625 C-1.98082031 9.40054688 -1.3659375 9.44953125 -0.73242188 9.5 C0.07582031 9.57476562 0.8840625 9.64953125 1.71679688 9.7265625 C2.51730469 9.79617187 3.3178125 9.86578125 4.14257812 9.9375 C6.40429688 10.3515625 6.40429688 10.3515625 9.40429688 12.3515625 C9.80273438 14.41015625 9.80273438 14.41015625 9.77929688 16.7890625 C9.78703125 17.57152344 9.79476562 18.35398438 9.80273438 19.16015625 C9.40429688 21.3515625 9.40429688 21.3515625 8.36132812 23.125 C5.31622622 25.03350698 2.18714603 24.66543376 -1.28320312 24.5390625 C-1.98509766 24.52552734 -2.68699219 24.51199219 -3.41015625 24.49804688 C-5.13900141 24.46276432 -6.86745078 24.40895833 -8.59570312 24.3515625 C-8.59570312 22.7015625 -8.59570312 21.0515625 -8.59570312 19.3515625 C-2.16070312 18.8565625 -2.16070312 18.8565625 4.40429688 18.3515625 C4.40429688 17.6915625 4.40429688 17.0315625 4.40429688 16.3515625 C3.24800781 16.18720703 3.24800781 16.18720703 2.06835938 16.01953125 C1.06546875 15.86097656 0.06257812 15.70242187 -0.97070312 15.5390625 C-2.46730469 15.31283203 -2.46730469 15.31283203 -3.99414062 15.08203125 C-6.59570312 14.3515625 -6.59570312 14.3515625 -8.59570312 11.3515625 C-8.91128752 7.88013411 -9.05661513 5.33056731 -7.55664062 2.14453125 C-5.08612467 -0.1143668 -3.27152021 -0.06321778 0 0 Z " fill="#3D3587" transform="translate(141.595703125,140.6484375)"/>
<path d="M0 0 C1.65 0 3.3 0 5 0 C5.33 5.61 5.66 11.22 6 17 C12.31483984 18.5797509 12.31483984 18.5797509 15 17 C15.33 11.39 15.66 5.78 16 0 C17.65 0 19.3 0 21 0 C21.08120751 2.89640118 21.14059421 5.79050912 21.1875 8.6875 C21.21263672 9.50412109 21.23777344 10.32074219 21.26367188 11.16210938 C21.32170486 15.94015822 21.14903871 19.13423093 18 23 C15.4639472 24.2680264 13.51988836 24.27534899 10.6875 24.375 C9.74261719 24.42398438 8.79773438 24.47296875 7.82421875 24.5234375 C3.70914941 23.76075522 2.39278581 22.41641439 0 19 C-0.58736322 15.70136229 -0.47424037 12.52432831 -0.3125 9.1875 C-0.28994141 8.30384766 -0.26738281 7.42019531 -0.24414062 6.50976562 C-0.18547428 4.3391109 -0.09579979 2.1693331 0 0 Z " fill="#3D3487" transform="translate(99,141)"/>
<path d="M0 0 C1.65 0 3.3 0 5 0 C5 11.22 5 22.44 5 34 C3.35 34 1.7 34 0 34 C0 22.78 0 11.56 0 0 Z " fill="#3E3587" transform="translate(124,131)"/>
<path d="M0 0 C0.99386719 0.02707031 1.98773438 0.05414063 3.01171875 0.08203125 C4.15060547 0.13423828 4.15060547 0.13423828 5.3125 0.1875 C5.3125 2.1675 5.3125 4.1475 5.3125 6.1875 C2.3425 6.1875 -0.6275 6.1875 -3.6875 6.1875 C-3.6875 12.1275 -3.6875 18.0675 -3.6875 24.1875 C-5.3375 24.1875 -6.9875 24.1875 -8.6875 24.1875 C-8.77453823 20.75015937 -8.82790272 17.31310163 -8.875 13.875 C-8.90013672 12.89853516 -8.92527344 11.92207031 -8.95117188 10.91601562 C-8.96083984 9.97822266 -8.97050781 9.04042969 -8.98046875 8.07421875 C-8.9961792 7.21014404 -9.01188965 6.34606934 -9.02807617 5.45581055 C-8.6875 3.1875 -8.6875 3.1875 -7.33789062 1.40039062 C-4.90465461 -0.38782188 -2.97158222 -0.10487937 0 0 Z " fill="#3D3588" transform="translate(32.6875,140.8125)"/>
</svg>