<svg width="20" height="20" viewBox="0 0 20 20" fill="none" xmlns="http://www.w3.org/2000/svg">
<path fill-rule="evenodd" clip-rule="evenodd" d="M10 20C15.5228 20 20 15.5228 20 10C20 4.47715 15.5228 0 10 0C4.47715 0 0 4.47715 0 10C0 15.5228 4.47715 20 10 20ZM12.0303 6.46967C12.3232 6.76256 12.3232 7.23744 12.0303 7.53033L9.56066 10L12.0303 12.4697C12.3232 12.7626 12.3232 13.2374 12.0303 13.5303C11.7374 13.8232 11.2626 13.8232 10.9697 13.5303L7.96967 10.5303C7.67678 10.2374 7.67678 9.76256 7.96967 9.46967L10.9697 6.46967C11.2626 6.17678 11.7374 6.17678 12.0303 6.46967Z" fill="#1C274C"/>
</svg>
