<svg width="14" height="14" viewBox="0 0 14 14" fill="none" xmlns="http://www.w3.org/2000/svg">
<path d="M6.85734 13.3007C10.3919 13.3007 13.2572 10.4353 13.2572 6.90049C13.2572 3.36573 10.3919 0.500244 6.85734 0.500244C3.32278 0.500244 0.457458 3.36573 0.457458 6.90049C0.457458 10.4353 3.32278 13.3007 6.85734 13.3007Z" fill="white" stroke="#0364AC" stroke-width="0.377953" stroke-miterlimit="22.9256" stroke-linecap="round" stroke-linejoin="round"/>
<path d="M7.43483 6.16721L6.58518 3.51135L7.12944 3.35035L7.97908 6.00621L7.70771 6.36036L7.43483 6.16721ZM7.97908 6.00621C8.02519 6.15059 7.94053 6.30403 7.79048 6.34825C7.64043 6.39247 7.48094 6.31159 7.43483 6.16721L7.97908 6.00621ZM10.4728 6.35467L7.70771 6.36036L7.7062 5.8131L10.4713 5.80742L10.6444 6.29876L10.4728 6.35467ZM10.4713 5.80742C10.6281 5.80704 10.7563 5.92949 10.7567 6.08029C10.757 6.23109 10.6297 6.3543 10.4728 6.35467L10.4713 5.80742ZM8.05958 7.49949L10.2997 5.86333L10.6444 6.29876L8.40427 7.93491L7.96018 7.79846L8.05958 7.49949ZM8.40427 7.93491C8.27955 8.026 8.1004 8.00295 8.00553 7.88276C7.91066 7.76257 7.93485 7.59058 8.05958 7.49949L8.40427 7.93491ZM8.81964 10.451L7.96018 7.79846L8.50367 7.63595L9.36313 10.2884L8.91829 10.5866L8.81964 10.451ZM9.36313 10.2884C9.40962 10.4324 9.3261 10.5863 9.17605 10.6309C9.026 10.6755 8.86613 10.595 8.81964 10.451L9.36313 10.2884ZM7.03041 8.5079L9.26449 10.1527L8.91829 10.5866L6.68421 8.94177V8.5079H7.03041ZM6.68421 8.94177C6.55949 8.84992 6.53606 8.67835 6.6313 8.55854C6.72654 8.43873 6.90569 8.41605 7.03041 8.5079L6.68421 8.94177ZM4.45013 10.1527L6.68421 8.5079L7.03041 8.94177L4.79634 10.5866L4.35149 10.2884L4.45013 10.1527ZM4.79634 10.5866C4.67161 10.6785 4.49246 10.6558 4.39722 10.536C4.30197 10.4162 4.3254 10.2446 4.45013 10.1527L4.79634 10.5866ZM5.75444 7.79846L4.89498 10.451L4.35149 10.2884L5.21095 7.63595L5.65504 7.49949L5.75444 7.79846ZM5.21095 7.63595C5.25744 7.49195 5.41731 7.41145 5.56736 7.45605C5.7174 7.50065 5.80093 7.65446 5.75444 7.79846L5.21095 7.63595ZM3.41492 5.86333L5.65504 7.49949L5.31035 7.93491L3.07022 6.29876L3.24333 5.80742L3.41492 5.86333ZM3.07022 6.29876C2.9455 6.20767 2.92131 6.03571 3.01618 5.91552C3.11104 5.79534 3.29019 5.77225 3.41492 5.86333L3.07022 6.29876ZM6.00692 6.36036L3.24181 6.35467L3.24333 5.80742L6.00843 5.8131L6.2798 6.16721L6.00692 6.36036ZM6.00843 5.8131C6.16528 5.81348 6.29265 5.93668 6.29227 6.08749C6.29189 6.23829 6.16377 6.36074 6.00692 6.36036L6.00843 5.8131ZM7.12944 3.51135L6.2798 6.16721L5.73554 6.00621L6.58518 3.35035H7.12944V3.51135ZM6.58518 3.35035C6.63129 3.20598 6.79079 3.12509 6.94084 3.16931C7.09089 3.21353 7.17555 3.36698 7.12944 3.51135L6.58518 3.35035Z" fill="#0364AC"/>
<path fill-rule="evenodd" clip-rule="evenodd" d="M6.8573 3.43091L7.70694 6.08676L10.472 6.08112L8.23191 7.71728L9.09137 10.3697L6.8573 8.7249L4.62322 10.3697L5.48268 7.71728L3.24255 6.08112L6.00766 6.08676L6.8573 3.43091Z" fill="#0364AC"/>
</svg>
