<svg width="14" height="14" viewBox="0 0 14 14" fill="none" xmlns="http://www.w3.org/2000/svg">
<path d="M7 13C10.3137 13 13 10.3137 13 7C13 3.68629 10.3137 1 7 1C3.68629 1 1 3.68629 1 7C1 10.3137 3.68629 13 7 13Z" fill="#860000" stroke="#860000" stroke-width="0.377953" stroke-miterlimit="22.9256" stroke-linecap="round" stroke-linejoin="round"/>
<path d="M7.54142 6.31247L6.74486 3.8227L7.25511 3.67177L8.05166 6.16154L7.79725 6.49354L7.54142 6.31247ZM8.05166 6.16154C8.09489 6.29689 8.01552 6.44074 7.87485 6.48219C7.73417 6.52365 7.58465 6.44782 7.54142 6.31247L8.05166 6.16154ZM10.3896 6.48821L7.79725 6.49354L7.79583 5.98051L10.3882 5.97518L10.5505 6.43579L10.3896 6.48821ZM10.3882 5.97518C10.5352 5.97483 10.6553 6.08962 10.6557 6.23099C10.656 6.37236 10.5366 6.48786 10.3896 6.48821L10.3882 5.97518ZM8.12713 7.56144L10.2273 6.0276L10.5505 6.43579L8.45029 7.96963L8.03394 7.84171L8.12713 7.56144ZM8.45029 7.96963C8.33336 8.05502 8.1654 8.03341 8.07646 7.92074C7.98752 7.80807 8.0102 7.64683 8.12713 7.56144L8.45029 7.96963ZM8.83971 10.3283L8.03394 7.84171L8.54348 7.68936L9.34924 10.1759L8.93219 10.4555L8.83971 10.3283ZM9.34924 10.1759C9.39282 10.3109 9.31452 10.4552 9.17384 10.497C9.03317 10.5388 8.88329 10.4633 8.83971 10.3283L9.34924 10.1759ZM7.16227 8.50678L9.25676 10.0488L8.93219 10.4555L6.8377 8.91352V8.50678H7.16227ZM6.8377 8.91352C6.72077 8.82742 6.6988 8.66657 6.78809 8.55426C6.87739 8.44194 7.04534 8.42068 7.16227 8.50678L6.8377 8.91352ZM4.7432 10.0488L6.8377 8.50678L7.16227 8.91352L5.06778 10.4555L4.65073 10.1759L4.7432 10.0488ZM5.06778 10.4555C4.95085 10.5416 4.78289 10.5204 4.6936 10.4081C4.60431 10.2957 4.62627 10.1349 4.7432 10.0488L5.06778 10.4555ZM5.96602 7.84171L5.16026 10.3283L4.65073 10.1759L5.45649 7.68936L5.87284 7.56144L5.96602 7.84171ZM5.45649 7.68936C5.50007 7.55437 5.64996 7.47891 5.79063 7.52072C5.9313 7.56253 6.00961 7.70672 5.96602 7.84171L5.45649 7.68936ZM3.77268 6.0276L5.87284 7.56144L5.54968 7.96963L3.44952 6.43579L3.61181 5.97518L3.77268 6.0276ZM3.44952 6.43579C3.33258 6.3504 3.30991 6.1892 3.39885 6.07653C3.48779 5.96385 3.65574 5.94221 3.77268 6.0276L3.44952 6.43579ZM6.20273 6.49354L3.61039 6.48821L3.61181 5.97518L6.20414 5.98051L6.45856 6.31247L6.20273 6.49354ZM6.20414 5.98051C6.35119 5.98086 6.4706 6.09636 6.47025 6.23774C6.46989 6.37911 6.34978 6.4939 6.20273 6.49354L6.20414 5.98051ZM7.25511 3.8227L6.45856 6.31247L5.94831 6.16154L6.74486 3.67177H7.25511V3.8227ZM6.74486 3.67177C6.78809 3.53642 6.93762 3.4606 7.07829 3.50205C7.21897 3.54351 7.29834 3.68736 7.25511 3.8227L6.74486 3.67177Z" fill="#860000"/>
<path fill-rule="evenodd" clip-rule="evenodd" d="M6.99998 3.74731L7.79653 6.23708L10.3889 6.23179L8.2887 7.76563L9.09446 10.2522L6.99998 8.71025L4.90548 10.2522L5.71124 7.76563L3.61108 6.23179L6.20342 6.23708L6.99998 3.74731Z" fill="#860000"/>
</svg>
